<svg width="280" height="89" viewBox="0 0 280 89" fill="none" xmlns="http://www.w3.org/2000/svg">
<path d="M1.40828 9.48C1.08828 9.48 0.821615 9.37333 0.608281 9.16C0.394948 8.94667 0.288281 8.68 0.288281 8.36C0.288281 8.04 0.394948 7.78 0.608281 7.58C0.821615 7.38 1.08828 7.28 1.40828 7.28H9.54828C9.86828 7.28 10.1349 7.38667 10.3483 7.6C10.5616 7.8 10.6683 8.06 10.6683 8.38C10.6683 8.7 10.5616 8.96667 10.3483 9.18C10.1349 9.38 9.86828 9.48 9.54828 9.48H1.40828ZM5.44828 13.38C5.07495 13.38 4.76161 13.26 4.50828 13.02C4.26828 12.78 4.14828 12.4733 4.14828 12.1V4.3C4.14828 3.92667 4.27495 3.62 4.52828 3.38C4.78161 3.14 5.09495 3.02 5.46828 3.02C5.85495 3.02 6.16161 3.14 6.38828 3.38C6.62828 3.62 6.74828 3.92667 6.74828 4.3V12.1C6.74828 12.4733 6.62828 12.78 6.38828 13.02C6.14828 13.26 5.83495 13.38 5.44828 13.38ZM13.2908 12.18C13.4108 12.18 13.5374 12.2 13.6708 12.24C13.8174 12.28 13.9774 12.36 14.1508 12.48C14.3774 12.6533 14.6441 12.8067 14.9508 12.94C15.2708 13.0733 15.6374 13.14 16.0508 13.14C16.4641 13.14 16.8508 13.04 17.2108 12.84C17.5841 12.6267 17.8908 12.3333 18.1308 11.96C18.3708 11.5733 18.4908 11.1133 18.4908 10.58C18.4908 10.0733 18.3841 9.65333 18.1708 9.32C17.9708 8.98667 17.6974 8.73333 17.3508 8.56C17.0174 8.38667 16.6574 8.3 16.2708 8.3C15.9774 8.3 15.7308 8.32667 15.5308 8.38C15.3441 8.43333 15.1574 8.49333 14.9708 8.56C14.7974 8.61333 14.5908 8.64 14.3508 8.64C14.0441 8.64 13.8041 8.53333 13.6308 8.32C13.4708 8.10667 13.3908 7.85333 13.3908 7.56C13.3908 7.37333 13.4241 7.20667 13.4908 7.06C13.5708 6.91333 13.6841 6.75333 13.8308 6.58L17.3508 2.84L17.8908 3.3H12.9708C12.6508 3.3 12.3841 3.19333 12.1708 2.98C11.9574 2.76667 11.8508 2.5 11.8508 2.18C11.8508 1.87333 11.9574 1.62 12.1708 1.42C12.3841 1.20667 12.6508 1.1 12.9708 1.1H19.0908C19.5041 1.1 19.8108 1.21333 20.0108 1.44C20.2241 1.66667 20.3308 1.95333 20.3308 2.3C20.3308 2.47333 20.2841 2.64667 20.1908 2.82C20.0974 2.98 19.9841 3.12667 19.8508 3.26L16.3108 7.06L15.7708 6.38C15.9174 6.31333 16.1174 6.25333 16.3708 6.2C16.6374 6.14667 16.8574 6.12 17.0308 6.12C17.8174 6.12 18.4974 6.32667 19.0708 6.74C19.6574 7.14 20.1041 7.66667 20.4108 8.32C20.7308 8.96 20.8908 9.65333 20.8908 10.4C20.8908 11.3867 20.6708 12.24 20.2308 12.96C19.7908 13.68 19.1708 14.2333 18.3708 14.62C17.5708 15.0067 16.6374 15.2 15.5708 15.2C15.0774 15.2 14.5908 15.14 14.1108 15.02C13.6308 14.9 13.2174 14.74 12.8708 14.54C12.5774 14.38 12.3774 14.2067 12.2708 14.02C12.1774 13.82 12.1308 13.6333 12.1308 13.46C12.1308 13.1533 12.2374 12.8667 12.4508 12.6C12.6774 12.32 12.9574 12.18 13.2908 12.18ZM29.513 7.9L29.473 7.44C29.9796 7.66667 30.4196 7.96 30.793 8.32C31.1663 8.68 31.453 9.07333 31.653 9.5C31.853 9.92667 31.953 10.3667 31.953 10.82C31.953 11.58 31.7396 12.28 31.313 12.92C30.8996 13.5467 30.3396 14.0533 29.633 14.44C28.9263 14.8133 28.1396 15 27.273 15C26.4063 15 25.6196 14.8133 24.913 14.44C24.2063 14.0533 23.6396 13.5467 23.213 12.92C22.7996 12.28 22.593 11.58 22.593 10.82C22.593 10.2067 22.7196 9.68 22.973 9.24C23.2396 8.78667 23.5663 8.40667 23.953 8.1C24.353 7.79333 24.7463 7.54 25.133 7.34L24.973 7.9C24.6396 7.76667 24.313 7.58 23.993 7.34C23.6863 7.08667 23.433 6.76667 23.233 6.38C23.033 5.99333 22.933 5.54 22.933 5.02C22.933 4.27333 23.1263 3.6 23.513 3C23.8996 2.38667 24.4196 1.9 25.073 1.54C25.7396 1.18 26.473 0.999999 27.273 0.999999C28.0863 0.999999 28.813 1.18 29.453 1.54C30.1063 1.9 30.6263 2.38667 31.013 3C31.3996 3.6 31.593 4.27333 31.593 5.02C31.593 5.59333 31.4796 6.07333 31.253 6.46C31.0263 6.84667 30.753 7.15333 30.433 7.38C30.113 7.60667 29.8063 7.78 29.513 7.9ZM25.333 5.06C25.333 5.42 25.413 5.74 25.573 6.02C25.7463 6.3 25.9796 6.52667 26.273 6.7C26.5663 6.86 26.8996 6.94 27.273 6.94C27.6463 6.94 27.973 6.86 28.253 6.7C28.5463 6.52667 28.773 6.3 28.933 6.02C29.1063 5.74 29.193 5.42 29.193 5.06C29.193 4.52667 29.0063 4.08667 28.633 3.74C28.273 3.38 27.8196 3.2 27.273 3.2C26.713 3.2 26.2463 3.38 25.873 3.74C25.513 4.08667 25.333 4.52667 25.333 5.06ZM27.273 12.8C27.913 12.8 28.453 12.6067 28.893 12.22C29.333 11.82 29.553 11.34 29.553 10.78C29.553 10.3933 29.453 10.0467 29.253 9.74C29.053 9.43333 28.7796 9.19333 28.433 9.02C28.0863 8.83333 27.6996 8.74 27.273 8.74C26.8463 8.74 26.4596 8.83333 26.113 9.02C25.7663 9.19333 25.493 9.43333 25.293 9.74C25.093 10.0467 24.993 10.3933 24.993 10.78C24.993 11.34 25.213 11.82 25.653 12.22C26.093 12.6067 26.633 12.8 27.273 12.8ZM46.0755 7.9L46.0355 7.44C46.5421 7.66667 46.9821 7.96 47.3555 8.32C47.7288 8.68 48.0155 9.07333 48.2155 9.5C48.4155 9.92667 48.5155 10.3667 48.5155 10.82C48.5155 11.58 48.3021 12.28 47.8755 12.92C47.4621 13.5467 46.9021 14.0533 46.1955 14.44C45.4888 14.8133 44.7021 15 43.8355 15C42.9688 15 42.1821 14.8133 41.4755 14.44C40.7688 14.0533 40.2021 13.5467 39.7755 12.92C39.3621 12.28 39.1555 11.58 39.1555 10.82C39.1555 10.2067 39.2821 9.68 39.5355 9.24C39.8021 8.78667 40.1288 8.40667 40.5155 8.1C40.9155 7.79333 41.3088 7.54 41.6955 7.34L41.5355 7.9C41.2021 7.76667 40.8755 7.58 40.5555 7.34C40.2488 7.08667 39.9955 6.76667 39.7955 6.38C39.5955 5.99333 39.4955 5.54 39.4955 5.02C39.4955 4.27333 39.6888 3.6 40.0755 3C40.4621 2.38667 40.9821 1.9 41.6355 1.54C42.3021 1.18 43.0355 0.999999 43.8355 0.999999C44.6488 0.999999 45.3755 1.18 46.0155 1.54C46.6688 1.9 47.1888 2.38667 47.5755 3C47.9621 3.6 48.1555 4.27333 48.1555 5.02C48.1555 5.59333 48.0421 6.07333 47.8155 6.46C47.5888 6.84667 47.3155 7.15333 46.9955 7.38C46.6755 7.60667 46.3688 7.78 46.0755 7.9ZM41.8955 5.06C41.8955 5.42 41.9755 5.74 42.1355 6.02C42.3088 6.3 42.5421 6.52667 42.8355 6.7C43.1288 6.86 43.4621 6.94 43.8355 6.94C44.2088 6.94 44.5355 6.86 44.8155 6.7C45.1088 6.52667 45.3355 6.3 45.4955 6.02C45.6688 5.74 45.7555 5.42 45.7555 5.06C45.7555 4.52667 45.5688 4.08667 45.1955 3.74C44.8355 3.38 44.3821 3.2 43.8355 3.2C43.2755 3.2 42.8088 3.38 42.4355 3.74C42.0755 4.08667 41.8955 4.52667 41.8955 5.06ZM43.8355 12.8C44.4755 12.8 45.0155 12.6067 45.4555 12.22C45.8955 11.82 46.1155 11.34 46.1155 10.78C46.1155 10.3933 46.0155 10.0467 45.8155 9.74C45.6155 9.43333 45.3421 9.19333 44.9955 9.02C44.6488 8.83333 44.2621 8.74 43.8355 8.74C43.4088 8.74 43.0221 8.83333 42.6755 9.02C42.3288 9.19333 42.0555 9.43333 41.8555 9.74C41.6555 10.0467 41.5555 10.3933 41.5555 10.78C41.5555 11.34 41.7755 11.82 42.2155 12.22C42.6555 12.6067 43.1955 12.8 43.8355 12.8ZM54.9725 0.739999C55.6925 0.739999 56.3392 0.893332 56.9125 1.2C57.4992 1.49333 57.9925 1.9 58.3925 2.42C58.8058 2.94 59.1192 3.52667 59.3325 4.18C59.5592 4.82 59.6725 5.49333 59.6725 6.2C59.6725 6.65333 59.6192 7.20667 59.5125 7.86C59.4192 8.51333 59.2458 9.20667 58.9925 9.94C58.7392 10.66 58.3858 11.3667 57.9325 12.06C57.4792 12.74 56.8992 13.3533 56.1925 13.9C55.4992 14.4467 54.6458 14.86 53.6325 15.14C53.4725 15.18 53.3192 15.2 53.1725 15.2C52.8658 15.2 52.5858 15.12 52.3325 14.96C52.0925 14.7867 51.9725 14.4933 51.9725 14.08C51.9725 13.7733 52.0658 13.5133 52.2525 13.3C52.4525 13.0867 52.7125 12.9333 53.0325 12.84C53.6458 12.6533 54.2392 12.3467 54.8125 11.92C55.3992 11.48 55.9058 10.9533 56.3325 10.34C56.7592 9.71333 57.0458 9.03333 57.1925 8.3L57.7325 8.32C57.5592 8.53333 57.3325 8.77333 57.0525 9.04C56.7858 9.30667 56.4525 9.54 56.0525 9.74C55.6658 9.92667 55.1992 10.02 54.6525 10.02C53.7725 10.02 53.0058 9.83333 52.3525 9.46C51.7125 9.07333 51.2125 8.53333 50.8525 7.84C50.4925 7.13333 50.3125 6.31333 50.3125 5.38C50.3125 4.54 50.5192 3.76667 50.9325 3.06C51.3592 2.35333 51.9258 1.79333 52.6325 1.38C53.3392 0.953332 54.1192 0.739999 54.9725 0.739999ZM54.9725 2.94C54.5458 2.94 54.1592 3.05333 53.8125 3.28C53.4792 3.49333 53.2125 3.78667 53.0125 4.16C52.8125 4.52 52.7125 4.92667 52.7125 5.38C52.7125 5.87333 52.8058 6.30667 52.9925 6.68C53.1792 7.04 53.4392 7.32 53.7725 7.52C54.1192 7.72 54.5192 7.82 54.9725 7.82C55.3992 7.82 55.7792 7.71333 56.1125 7.5C56.4592 7.28667 56.7325 6.99333 56.9325 6.62C57.1325 6.24667 57.2325 5.83333 57.2325 5.38C57.2325 4.91333 57.1325 4.5 56.9325 4.14C56.7325 3.76667 56.4592 3.47333 56.1125 3.26C55.7792 3.04667 55.3992 2.94 54.9725 2.94ZM66.3397 0.739999C67.0597 0.739999 67.7064 0.893332 68.2797 1.2C68.8664 1.49333 69.3597 1.9 69.7597 2.42C70.173 2.94 70.4864 3.52667 70.6997 4.18C70.9264 4.82 71.0397 5.49333 71.0397 6.2C71.0397 6.65333 70.9864 7.20667 70.8797 7.86C70.7864 8.51333 70.613 9.20667 70.3597 9.94C70.1064 10.66 69.753 11.3667 69.2997 12.06C68.8464 12.74 68.2664 13.3533 67.5597 13.9C66.8664 14.4467 66.013 14.86 64.9997 15.14C64.8397 15.18 64.6864 15.2 64.5397 15.2C64.233 15.2 63.953 15.12 63.6997 14.96C63.4597 14.7867 63.3397 14.4933 63.3397 14.08C63.3397 13.7733 63.433 13.5133 63.6197 13.3C63.8197 13.0867 64.0797 12.9333 64.3997 12.84C65.013 12.6533 65.6064 12.3467 66.1797 11.92C66.7664 11.48 67.273 10.9533 67.6997 10.34C68.1264 9.71333 68.413 9.03333 68.5597 8.3L69.0997 8.32C68.9264 8.53333 68.6997 8.77333 68.4197 9.04C68.153 9.30667 67.8197 9.54 67.4197 9.74C67.033 9.92667 66.5664 10.02 66.0197 10.02C65.1397 10.02 64.373 9.83333 63.7197 9.46C63.0797 9.07333 62.5797 8.53333 62.2197 7.84C61.8597 7.13333 61.6797 6.31333 61.6797 5.38C61.6797 4.54 61.8864 3.76667 62.2997 3.06C62.7264 2.35333 63.293 1.79333 63.9997 1.38C64.7064 0.953332 65.4864 0.739999 66.3397 0.739999ZM66.3397 2.94C65.913 2.94 65.5264 3.05333 65.1797 3.28C64.8464 3.49333 64.5797 3.78667 64.3797 4.16C64.1797 4.52 64.0797 4.92667 64.0797 5.38C64.0797 5.87333 64.173 6.30667 64.3597 6.68C64.5464 7.04 64.8064 7.32 65.1397 7.52C65.4864 7.72 65.8864 7.82 66.3397 7.82C66.7664 7.82 67.1464 7.71333 67.4797 7.5C67.8264 7.28667 68.0997 6.99333 68.2997 6.62C68.4997 6.24667 68.5997 5.83333 68.5997 5.38C68.5997 4.91333 68.4997 4.5 68.2997 4.14C68.0997 3.76667 67.8264 3.47333 67.4797 3.26C67.1464 3.04667 66.7664 2.94 66.3397 2.94ZM85.4323 15C85.099 15 84.819 14.8867 84.5923 14.66C84.3657 14.42 84.2523 14.1267 84.2523 13.78V4.38L84.6723 4.48L80.8123 9.26L80.7123 9H87.7923C88.1123 9 88.379 9.10667 88.5923 9.32C88.8057 9.53333 88.9123 9.8 88.9123 10.12C88.9123 10.4267 88.8057 10.6867 88.5923 10.9C88.379 11.1 88.1123 11.2 87.7923 11.2H79.0523C78.7723 11.2 78.499 11.0867 78.2323 10.86C77.979 10.6333 77.8523 10.3533 77.8523 10.02C77.8523 9.72667 77.9523 9.46 78.1523 9.22L84.4723 1.48C84.579 1.33333 84.719 1.22 84.8923 1.14C85.0657 1.04667 85.259 0.999999 85.4723 0.999999C85.819 0.999999 86.099 1.12 86.3123 1.36C86.539 1.58667 86.6523 1.87333 86.6523 2.22V13.78C86.6523 14.1267 86.5323 14.42 86.2923 14.66C86.0657 14.8867 85.779 15 85.4323 15ZM91.6502 12.18C91.7702 12.18 91.8968 12.2 92.0302 12.24C92.1768 12.28 92.3368 12.36 92.5102 12.48C92.7368 12.6533 93.0035 12.8067 93.3102 12.94C93.6302 13.0733 93.9968 13.14 94.4102 13.14C94.8235 13.14 95.2102 13.04 95.5702 12.84C95.9435 12.6267 96.2502 12.3333 96.4902 11.96C96.7302 11.5733 96.8502 11.1133 96.8502 10.58C96.8502 10.0733 96.7435 9.65333 96.5302 9.32C96.3302 8.98667 96.0568 8.73333 95.7102 8.56C95.3768 8.38667 95.0168 8.3 94.6302 8.3C94.3368 8.3 94.0902 8.32667 93.8902 8.38C93.7035 8.43333 93.5168 8.49333 93.3302 8.56C93.1568 8.61333 92.9502 8.64 92.7102 8.64C92.4035 8.64 92.1635 8.53333 91.9902 8.32C91.8302 8.10667 91.7502 7.85333 91.7502 7.56C91.7502 7.37333 91.7835 7.20667 91.8502 7.06C91.9302 6.91333 92.0435 6.75333 92.1902 6.58L95.7102 2.84L96.2502 3.3H91.3302C91.0102 3.3 90.7435 3.19333 90.5302 2.98C90.3168 2.76667 90.2102 2.5 90.2102 2.18C90.2102 1.87333 90.3168 1.62 90.5302 1.42C90.7435 1.20667 91.0102 1.1 91.3302 1.1H97.4502C97.8635 1.1 98.1702 1.21333 98.3702 1.44C98.5835 1.66667 98.6902 1.95333 98.6902 2.3C98.6902 2.47333 98.6435 2.64667 98.5502 2.82C98.4568 2.98 98.3435 3.12667 98.2102 3.26L94.6702 7.06L94.1302 6.38C94.2768 6.31333 94.4768 6.25333 94.7302 6.2C94.9968 6.14667 95.2168 6.12 95.3902 6.12C96.1768 6.12 96.8568 6.32667 97.4302 6.74C98.0168 7.14 98.4635 7.66667 98.7702 8.32C99.0902 8.96 99.2502 9.65333 99.2502 10.4C99.2502 11.3867 99.0302 12.24 98.5902 12.96C98.1502 13.68 97.5302 14.2333 96.7302 14.62C95.9302 15.0067 94.9968 15.2 93.9302 15.2C93.4368 15.2 92.9502 15.14 92.4702 15.02C91.9902 14.9 91.5768 14.74 91.2302 14.54C90.9368 14.38 90.7368 14.2067 90.6302 14.02C90.5368 13.82 90.4902 13.6333 90.4902 13.46C90.4902 13.1533 90.5968 12.8667 90.8102 12.6C91.0368 12.32 91.3168 12.18 91.6502 12.18ZM109.312 12.8C109.632 12.8 109.899 12.9067 110.112 13.12C110.326 13.3333 110.432 13.6 110.432 13.92C110.432 14.2267 110.326 14.4867 110.112 14.7C109.899 14.9 109.632 15 109.312 15H102.512C102.166 15 101.892 14.8933 101.692 14.68C101.492 14.4667 101.392 14.1933 101.392 13.86C101.392 13.5267 101.512 13.2333 101.752 12.98L106.112 8.32C106.606 7.78667 106.992 7.24 107.272 6.68C107.566 6.12 107.712 5.63333 107.712 5.22C107.712 4.55333 107.519 4.02 107.132 3.62C106.746 3.20667 106.232 3 105.592 3C105.339 3 105.079 3.06 104.812 3.18C104.546 3.3 104.286 3.46667 104.032 3.68C103.792 3.89333 103.566 4.14 103.352 4.42C103.192 4.63333 103.032 4.76667 102.872 4.82C102.712 4.87333 102.566 4.9 102.432 4.9C102.139 4.9 101.866 4.79333 101.612 4.58C101.372 4.35333 101.252 4.09333 101.252 3.8C101.252 3.57333 101.326 3.35333 101.472 3.14C101.632 2.92667 101.826 2.70667 102.052 2.48C102.386 2.14667 102.759 1.85333 103.172 1.6C103.586 1.34667 104.012 1.15333 104.452 1.02C104.892 0.873332 105.319 0.799999 105.732 0.799999C106.626 0.799999 107.399 0.979999 108.052 1.34C108.719 1.68667 109.232 2.18667 109.592 2.84C109.952 3.48 110.132 4.24 110.132 5.12C110.132 5.85333 109.912 6.67333 109.472 7.58C109.046 8.47333 108.466 9.31333 107.732 10.1L105.032 12.98L104.812 12.8H109.312ZM117.679 15.2C116.532 15.2 115.559 14.9 114.759 14.3C113.972 13.6867 113.372 12.84 112.959 11.76C112.546 10.6667 112.339 9.41333 112.339 8C112.339 6.57333 112.546 5.32 112.959 4.24C113.372 3.16 113.972 2.32 114.759 1.72C115.559 1.10667 116.532 0.799999 117.679 0.799999C118.826 0.799999 119.792 1.10667 120.579 1.72C121.379 2.32 121.986 3.16 122.399 4.24C122.812 5.32 123.019 6.57333 123.019 8C123.019 9.41333 122.812 10.6667 122.399 11.76C121.986 12.84 121.379 13.6867 120.579 14.3C119.792 14.9 118.826 15.2 117.679 15.2ZM117.679 12.8C118.239 12.8 118.719 12.6267 119.119 12.28C119.532 11.92 119.852 11.3867 120.079 10.68C120.306 9.96 120.419 9.06667 120.419 8C120.419 6.92 120.306 6.02667 120.079 5.32C119.852 4.61333 119.532 4.08667 119.119 3.74C118.719 3.38 118.239 3.2 117.679 3.2C117.132 3.2 116.652 3.38 116.239 3.74C115.826 4.08667 115.506 4.61333 115.279 5.32C115.052 6.02667 114.939 6.92 114.939 8C114.939 9.06667 115.052 9.96 115.279 10.68C115.506 11.3867 115.826 11.92 116.239 12.28C116.652 12.6267 117.132 12.8 117.679 12.8ZM131.67 12.18C131.79 12.18 131.916 12.2 132.05 12.24C132.196 12.28 132.356 12.36 132.53 12.48C132.756 12.6533 133.023 12.8067 133.33 12.94C133.65 13.0733 134.016 13.14 134.43 13.14C134.843 13.14 135.23 13.04 135.59 12.84C135.963 12.6267 136.27 12.3333 136.51 11.96C136.75 11.5733 136.87 11.1133 136.87 10.58C136.87 10.0733 136.763 9.65333 136.55 9.32C136.35 8.98667 136.076 8.73333 135.73 8.56C135.396 8.38667 135.036 8.3 134.65 8.3C134.356 8.3 134.11 8.32667 133.91 8.38C133.723 8.43333 133.536 8.49333 133.35 8.56C133.176 8.61333 132.97 8.64 132.73 8.64C132.423 8.64 132.183 8.53333 132.01 8.32C131.85 8.10667 131.77 7.85333 131.77 7.56C131.77 7.37333 131.803 7.20667 131.87 7.06C131.95 6.91333 132.063 6.75333 132.21 6.58L135.73 2.84L136.27 3.3H131.35C131.03 3.3 130.763 3.19333 130.55 2.98C130.336 2.76667 130.23 2.5 130.23 2.18C130.23 1.87333 130.336 1.62 130.55 1.42C130.763 1.20667 131.03 1.1 131.35 1.1H137.47C137.883 1.1 138.19 1.21333 138.39 1.44C138.603 1.66667 138.71 1.95333 138.71 2.3C138.71 2.47333 138.663 2.64667 138.57 2.82C138.476 2.98 138.363 3.12667 138.23 3.26L134.69 7.06L134.15 6.38C134.296 6.31333 134.496 6.25333 134.75 6.2C135.016 6.14667 135.236 6.12 135.41 6.12C136.196 6.12 136.876 6.32667 137.45 6.74C138.036 7.14 138.483 7.66667 138.79 8.32C139.11 8.96 139.27 9.65333 139.27 10.4C139.27 11.3867 139.05 12.24 138.61 12.96C138.17 13.68 137.55 14.2333 136.75 14.62C135.95 15.0067 135.016 15.2 133.95 15.2C133.456 15.2 132.97 15.14 132.49 15.02C132.01 14.9 131.596 14.74 131.25 14.54C130.956 14.38 130.756 14.2067 130.65 14.02C130.556 13.82 130.51 13.6333 130.51 13.46C130.51 13.1533 130.616 12.8667 130.83 12.6C131.056 12.32 131.336 12.18 131.67 12.18ZM149.332 12.8C149.652 12.8 149.919 12.9067 150.132 13.12C150.345 13.3333 150.452 13.6 150.452 13.92C150.452 14.2267 150.345 14.4867 150.132 14.7C149.919 14.9 149.652 15 149.332 15H142.532C142.185 15 141.912 14.8933 141.712 14.68C141.512 14.4667 141.412 14.1933 141.412 13.86C141.412 13.5267 141.532 13.2333 141.772 12.98L146.132 8.32C146.625 7.78667 147.012 7.24 147.292 6.68C147.585 6.12 147.732 5.63333 147.732 5.22C147.732 4.55333 147.539 4.02 147.152 3.62C146.765 3.20667 146.252 3 145.612 3C145.359 3 145.099 3.06 144.832 3.18C144.565 3.3 144.305 3.46667 144.052 3.68C143.812 3.89333 143.585 4.14 143.372 4.42C143.212 4.63333 143.052 4.76667 142.892 4.82C142.732 4.87333 142.585 4.9 142.452 4.9C142.159 4.9 141.885 4.79333 141.632 4.58C141.392 4.35333 141.272 4.09333 141.272 3.8C141.272 3.57333 141.345 3.35333 141.492 3.14C141.652 2.92667 141.845 2.70667 142.072 2.48C142.405 2.14667 142.779 1.85333 143.192 1.6C143.605 1.34667 144.032 1.15333 144.472 1.02C144.912 0.873332 145.339 0.799999 145.752 0.799999C146.645 0.799999 147.419 0.979999 148.072 1.34C148.739 1.68667 149.252 2.18667 149.612 2.84C149.972 3.48 150.152 4.24 150.152 5.12C150.152 5.85333 149.932 6.67333 149.492 7.58C149.065 8.47333 148.485 9.31333 147.752 10.1L145.052 12.98L144.832 12.8H149.332ZM6.19703 39.7C7.03703 39.7 7.71703 39.88 8.23703 40.24C8.75703 40.6 9.13703 41.0867 9.37703 41.7C9.63036 42.3133 9.75703 42.9933 9.75703 43.74V49.4C9.75703 49.56 9.69703 49.7 9.57703 49.82C9.45703 49.94 9.31703 50 9.15703 50C8.97036 50 8.8237 49.94 8.71703 49.82C8.61036 49.7 8.55703 49.56 8.55703 49.4V43.74C8.55703 43.1933 8.47036 42.7 8.29703 42.26C8.13703 41.82 7.87037 41.4733 7.49703 41.22C7.1237 40.9533 6.6237 40.82 5.99703 40.82C5.43703 40.82 4.9037 40.9533 4.39703 41.22C3.9037 41.4733 3.5037 41.82 3.19703 42.26C2.89036 42.7 2.73703 43.1933 2.73703 43.74V49.4C2.73703 49.56 2.67703 49.7 2.55703 49.82C2.43703 49.94 2.29703 50 2.13703 50C1.95036 50 1.8037 49.94 1.69703 49.82C1.59036 49.7 1.53703 49.56 1.53703 49.4V35.8C1.53703 35.64 1.59036 35.5 1.69703 35.38C1.81703 35.26 1.9637 35.2 2.13703 35.2C2.31036 35.2 2.45036 35.26 2.55703 35.38C2.67703 35.5 2.73703 35.64 2.73703 35.8V42.28L2.27703 42.98C2.3037 42.5667 2.43036 42.1667 2.65703 41.78C2.89703 41.38 3.2037 41.0267 3.57703 40.72C3.95036 40.4 4.3637 40.1533 4.81703 39.98C5.27036 39.7933 5.73036 39.7 6.19703 39.7ZM21.2842 39.78C21.4576 39.78 21.5976 39.84 21.7042 39.96C21.8242 40.08 21.8842 40.2267 21.8842 40.4V49.4C21.8842 49.56 21.8242 49.7 21.7042 49.82C21.5842 49.94 21.4442 50 21.2842 50C21.1109 50 20.9642 49.94 20.8442 49.82C20.7376 49.7 20.6842 49.56 20.6842 49.4V47.02L21.0242 46.86C21.0242 47.2333 20.9176 47.6133 20.7042 48C20.5042 48.3867 20.2242 48.7467 19.8642 49.08C19.5042 49.4133 19.0776 49.6867 18.5842 49.9C18.1042 50.1 17.5842 50.2 17.0242 50.2C16.1176 50.2 15.3042 49.9667 14.5842 49.5C13.8776 49.0333 13.3176 48.3933 12.9042 47.58C12.5042 46.7667 12.3042 45.8533 12.3042 44.84C12.3042 43.8 12.5109 42.8867 12.9242 42.1C13.3376 41.3 13.8976 40.6733 14.6042 40.22C15.3109 39.7667 16.1109 39.54 17.0042 39.54C17.5776 39.54 18.1109 39.64 18.6042 39.84C19.1109 40.04 19.5509 40.3133 19.9242 40.66C20.2976 41.0067 20.5842 41.4067 20.7842 41.86C20.9976 42.3 21.1042 42.76 21.1042 43.24L20.6842 42.94V40.4C20.6842 40.2267 20.7376 40.08 20.8442 39.96C20.9642 39.84 21.1109 39.78 21.2842 39.78ZM17.1242 49.08C17.8309 49.08 18.4576 48.9 19.0042 48.54C19.5509 48.1667 19.9776 47.66 20.2842 47.02C20.6042 46.3667 20.7642 45.64 20.7642 44.84C20.7642 44.0533 20.6042 43.3467 20.2842 42.72C19.9776 42.0933 19.5509 41.5933 19.0042 41.22C18.4576 40.8467 17.8309 40.66 17.1242 40.66C16.4309 40.66 15.8042 40.84 15.2442 41.2C14.6976 41.56 14.2642 42.0533 13.9442 42.68C13.6376 43.3067 13.4842 44.0267 13.4842 44.84C13.4842 45.64 13.6376 46.3667 13.9442 47.02C14.2642 47.66 14.6976 48.1667 15.2442 48.54C15.7909 48.9 16.4176 49.08 17.1242 49.08ZM26.1931 49.4C26.1931 49.56 26.1331 49.7 26.0131 49.82C25.8931 49.94 25.7531 50 25.5931 50C25.4198 50 25.2731 49.94 25.1531 49.82C25.0465 49.7 24.9931 49.56 24.9931 49.4V40.2C24.9931 40.04 25.0465 39.9 25.1531 39.78C25.2731 39.66 25.4198 39.6 25.5931 39.6C25.7665 39.6 25.9065 39.66 26.0131 39.78C26.1331 39.9 26.1931 40.04 26.1931 40.2V49.4ZM25.5931 38.26C25.3131 38.26 25.0998 38.2 24.9531 38.08C24.8198 37.9467 24.7531 37.76 24.7531 37.52V37.32C24.7531 37.08 24.8265 36.9 24.9731 36.78C25.1331 36.6467 25.3465 36.58 25.6131 36.58C25.8665 36.58 26.0598 36.6467 26.1931 36.78C26.3398 36.9 26.4131 37.08 26.4131 37.32V37.52C26.4131 37.76 26.3398 37.9467 26.1931 38.08C26.0598 38.2 25.8598 38.26 25.5931 38.26ZM41.5105 48.9C41.1105 48.9 40.7571 48.82 40.4505 48.66C40.1438 48.5 39.9105 48.2733 39.7505 47.98C39.6038 47.6733 39.5571 47.3267 39.6105 46.94L39.7905 45.56L40.0705 45.6C39.7905 46.32 39.4238 46.9267 38.9705 47.42C38.5305 47.9133 38.0371 48.2867 37.4905 48.54C36.9571 48.78 36.4238 48.9 35.8905 48.9C35.3171 48.9 34.8105 48.7533 34.3705 48.46C33.9305 48.1533 33.5838 47.7533 33.3305 47.26C33.0771 46.7667 32.9505 46.2133 32.9505 45.6C32.9505 44.9733 33.0705 44.3267 33.3105 43.66C33.5505 42.98 33.8838 42.3467 34.3105 41.76C34.7505 41.1733 35.2638 40.7 35.8505 40.34C36.4371 39.98 37.0771 39.8 37.7705 39.8C38.5705 39.8 39.2105 40.0533 39.6905 40.56C40.1838 41.0533 40.4838 41.66 40.5905 42.38L40.2105 43.38L40.6505 40.5C40.6771 40.3533 40.7371 40.2267 40.8305 40.12C40.9238 40.0133 41.0705 39.96 41.2705 39.96C41.4971 39.96 41.6505 40.02 41.7305 40.14C41.8105 40.26 41.8305 40.44 41.7905 40.68L40.8505 46.68C40.7838 47.1333 40.8505 47.46 41.0505 47.66C41.2505 47.86 41.4771 47.96 41.7305 47.96C42.2105 47.96 42.6571 47.7933 43.0705 47.46C43.4971 47.1133 43.8705 46.66 44.1905 46.1C44.5238 45.5267 44.7771 44.8933 44.9505 44.2C45.1371 43.4933 45.2305 42.7867 45.2305 42.08C45.2305 41.0267 44.9838 40.1 44.4905 39.3C44.0105 38.5 43.3171 37.88 42.4105 37.44C41.5171 36.9867 40.4638 36.76 39.2505 36.76C37.8771 36.76 36.6038 36.9667 35.4305 37.38C34.2571 37.78 33.2305 38.38 32.3505 39.18C31.4705 39.9667 30.7771 40.92 30.2705 42.04C29.7771 43.16 29.5305 44.44 29.5305 45.88C29.5305 46.6667 29.6505 47.44 29.8905 48.2C30.1438 48.96 30.5238 49.6467 31.0305 50.26C31.5505 50.8867 32.2238 51.38 33.0505 51.74C33.8771 52.1 34.8638 52.28 36.0105 52.28C36.7438 52.28 37.3638 52.22 37.8705 52.1C38.3905 51.9933 38.8571 51.8467 39.2705 51.66C39.6838 51.4867 40.0971 51.3 40.5105 51.1C40.6171 51.0467 40.7238 51.0267 40.8305 51.04C40.9505 51.0667 41.0438 51.16 41.1105 51.32C41.2171 51.5867 41.1105 51.8 40.7905 51.96C40.2171 52.24 39.5571 52.52 38.8105 52.8C38.0638 53.0933 37.1305 53.24 36.0105 53.24C34.6638 53.24 33.5171 53.0267 32.5705 52.6C31.6238 52.1867 30.8505 51.6267 30.2505 50.92C29.6638 50.2133 29.2305 49.4267 28.9505 48.56C28.6705 47.68 28.5305 46.7867 28.5305 45.88C28.5305 44.32 28.8038 42.92 29.3505 41.68C29.9105 40.44 30.6771 39.38 31.6505 38.5C32.6371 37.62 33.7771 36.9533 35.0705 36.5C36.3638 36.0333 37.7571 35.8 39.2505 35.8C40.7705 35.8 42.0505 36.0867 43.0905 36.66C44.1305 37.22 44.9105 37.98 45.4305 38.94C45.9638 39.8867 46.2305 40.9333 46.2305 42.08C46.2305 42.8933 46.1105 43.7067 45.8705 44.52C45.6438 45.32 45.3171 46.0533 44.8905 46.72C44.4771 47.3733 43.9771 47.9 43.3905 48.3C42.8171 48.7 42.1905 48.9 41.5105 48.9ZM36.0705 47.88C36.5371 47.88 37.0038 47.76 37.4705 47.52C37.9371 47.2667 38.3638 46.9333 38.7505 46.52C39.1371 46.0933 39.4505 45.6267 39.6905 45.12C39.9438 44.6 40.0771 44.0733 40.0905 43.54C40.1571 42.9933 40.1038 42.52 39.9305 42.12C39.7571 41.7067 39.4838 41.3867 39.1105 41.16C38.7505 40.9333 38.3171 40.82 37.8105 40.82C37.2371 40.82 36.7238 40.9733 36.2705 41.28C35.8171 41.5733 35.4305 41.9667 35.1105 42.46C34.7905 42.94 34.5505 43.46 34.3905 44.02C34.2305 44.5667 34.1505 45.08 34.1505 45.56C34.1505 46.2933 34.3371 46.8667 34.7105 47.28C35.0971 47.68 35.5505 47.88 36.0705 47.88ZM57.1241 39.78C57.2974 39.78 57.4374 39.84 57.5441 39.96C57.6641 40.08 57.7241 40.2267 57.7241 40.4V49.4C57.7241 49.56 57.6641 49.7 57.5441 49.82C57.4241 49.94 57.2841 50 57.1241 50C56.9507 50 56.8041 49.94 56.6841 49.82C56.5774 49.7 56.5241 49.56 56.5241 49.4V47.02L56.8641 46.86C56.8641 47.2333 56.7574 47.6133 56.5441 48C56.3441 48.3867 56.0641 48.7467 55.7041 49.08C55.3441 49.4133 54.9174 49.6867 54.4241 49.9C53.9441 50.1 53.4241 50.2 52.8641 50.2C51.9574 50.2 51.1441 49.9667 50.4241 49.5C49.7174 49.0333 49.1574 48.3933 48.7441 47.58C48.3441 46.7667 48.1441 45.8533 48.1441 44.84C48.1441 43.8 48.3507 42.8867 48.7641 42.1C49.1774 41.3 49.7374 40.6733 50.4441 40.22C51.1507 39.7667 51.9507 39.54 52.8441 39.54C53.4174 39.54 53.9507 39.64 54.4441 39.84C54.9507 40.04 55.3907 40.3133 55.7641 40.66C56.1374 41.0067 56.4241 41.4067 56.6241 41.86C56.8374 42.3 56.9441 42.76 56.9441 43.24L56.5241 42.94V40.4C56.5241 40.2267 56.5774 40.08 56.6841 39.96C56.8041 39.84 56.9507 39.78 57.1241 39.78ZM52.9641 49.08C53.6707 49.08 54.2974 48.9 54.8441 48.54C55.3907 48.1667 55.8174 47.66 56.1241 47.02C56.4441 46.3667 56.6041 45.64 56.6041 44.84C56.6041 44.0533 56.4441 43.3467 56.1241 42.72C55.8174 42.0933 55.3907 41.5933 54.8441 41.22C54.2974 40.8467 53.6707 40.66 52.9641 40.66C52.2707 40.66 51.6441 40.84 51.0841 41.2C50.5374 41.56 50.1041 42.0533 49.7841 42.68C49.4774 43.3067 49.3241 44.0267 49.3241 44.84C49.3241 45.64 49.4774 46.3667 49.7841 47.02C50.1041 47.66 50.5374 48.1667 51.0841 48.54C51.6307 48.9 52.2574 49.08 52.9641 49.08ZM62.193 49.4C62.193 49.56 62.133 49.7 62.013 49.82C61.893 49.94 61.753 50 61.593 50C61.4196 50 61.273 49.94 61.153 49.82C61.0463 49.7 60.993 49.56 60.993 49.4V35.8C60.993 35.64 61.053 35.5 61.173 35.38C61.293 35.26 61.433 35.2 61.593 35.2C61.7663 35.2 61.9063 35.26 62.013 35.38C62.133 35.5 62.193 35.64 62.193 35.8V49.4ZM69.907 50.2C68.8804 50.2 67.9737 49.98 67.187 49.54C66.4004 49.1 65.787 48.4867 65.347 47.7C64.907 46.9133 64.687 45.9933 64.687 44.94C64.687 43.8067 64.907 42.84 65.347 42.04C65.8004 41.24 66.3804 40.6267 67.087 40.2C67.807 39.76 68.567 39.54 69.367 39.54C69.9537 39.54 70.5204 39.6467 71.067 39.86C71.627 40.06 72.1204 40.3667 72.547 40.78C72.987 41.18 73.3337 41.6733 73.587 42.26C73.8537 42.8467 74.0004 43.5267 74.027 44.3C74.0137 44.46 73.947 44.6 73.827 44.72C73.707 44.8267 73.567 44.88 73.407 44.88H65.387L65.147 43.8H73.027L72.767 44.04V43.64C72.7137 43.0133 72.5137 42.48 72.167 42.04C71.8204 41.6 71.4004 41.2667 70.907 41.04C70.4137 40.8133 69.9004 40.7 69.367 40.7C68.967 40.7 68.5537 40.78 68.127 40.94C67.7137 41.1 67.3337 41.3533 66.987 41.7C66.6537 42.0333 66.3804 42.4667 66.167 43C65.9537 43.52 65.847 44.14 65.847 44.86C65.847 45.6467 66.007 46.36 66.327 47C66.647 47.64 67.107 48.1467 67.707 48.52C68.3204 48.8933 69.047 49.08 69.887 49.08C70.3537 49.08 70.7737 49.0133 71.147 48.88C71.5204 48.7467 71.847 48.5733 72.127 48.36C72.407 48.1333 72.6404 47.9 72.827 47.66C72.9737 47.54 73.1204 47.48 73.267 47.48C73.4004 47.48 73.5137 47.5333 73.607 47.64C73.7137 47.7467 73.767 47.8667 73.767 48C73.767 48.16 73.7004 48.3 73.567 48.42C73.167 48.9 72.647 49.32 72.007 49.68C71.367 50.0267 70.667 50.2 69.907 50.2ZM75.9356 39.82H80.5956C80.7556 39.82 80.889 39.88 80.9956 40C81.1023 40.1067 81.1556 40.24 81.1556 40.4C81.1556 40.5467 81.1023 40.6733 80.9956 40.78C80.889 40.8867 80.7556 40.94 80.5956 40.94H75.9356C75.7756 40.94 75.6356 40.8867 75.5156 40.78C75.409 40.66 75.3556 40.5267 75.3556 40.38C75.3556 40.22 75.409 40.0867 75.5156 39.98C75.6356 39.8733 75.7756 39.82 75.9356 39.82ZM77.9956 37C78.169 37 78.309 37.06 78.4156 37.18C78.5356 37.3 78.5956 37.44 78.5956 37.6V47.64C78.5956 48.0133 78.6423 48.2933 78.7356 48.48C78.8423 48.6667 78.9756 48.7933 79.1356 48.86C79.2956 48.9133 79.4556 48.94 79.6156 48.94C79.7223 48.94 79.8156 48.9267 79.8956 48.9C79.989 48.86 80.089 48.84 80.1956 48.84C80.3156 48.84 80.4156 48.8867 80.4956 48.98C80.589 49.0733 80.6356 49.1933 80.6356 49.34C80.6356 49.5267 80.529 49.6867 80.3156 49.82C80.1023 49.94 79.849 50 79.5556 50C79.4356 50 79.2556 49.9933 79.0156 49.98C78.7756 49.9533 78.529 49.88 78.2756 49.76C78.0223 49.6267 77.809 49.4 77.6356 49.08C77.4756 48.76 77.3956 48.3 77.3956 47.7V37.6C77.3956 37.44 77.449 37.3 77.5556 37.18C77.6756 37.06 77.8223 37 77.9956 37ZM88.033 39.7C88.873 39.7 89.553 39.88 90.073 40.24C90.593 40.6 90.973 41.0867 91.213 41.7C91.4663 42.3133 91.593 42.9933 91.593 43.74V49.4C91.593 49.56 91.533 49.7 91.413 49.82C91.293 49.94 91.153 50 90.993 50C90.8063 50 90.6596 49.94 90.553 49.82C90.4463 49.7 90.393 49.56 90.393 49.4V43.74C90.393 43.1933 90.3063 42.7 90.133 42.26C89.973 41.82 89.7063 41.4733 89.333 41.22C88.9596 40.9533 88.4596 40.82 87.833 40.82C87.273 40.82 86.7396 40.9533 86.233 41.22C85.7396 41.4733 85.3396 41.82 85.033 42.26C84.7263 42.7 84.573 43.1933 84.573 43.74V49.4C84.573 49.56 84.513 49.7 84.393 49.82C84.273 49.94 84.133 50 83.973 50C83.7863 50 83.6396 49.94 83.533 49.82C83.4263 49.7 83.373 49.56 83.373 49.4V35.8C83.373 35.64 83.4263 35.5 83.533 35.38C83.653 35.26 83.7996 35.2 83.973 35.2C84.1463 35.2 84.2863 35.26 84.393 35.38C84.513 35.5 84.573 35.64 84.573 35.8V42.28L84.113 42.98C84.1396 42.5667 84.2663 42.1667 84.493 41.78C84.733 41.38 85.0396 41.0267 85.413 40.72C85.7863 40.4 86.1996 40.1533 86.653 39.98C87.1063 39.7933 87.5663 39.7 88.033 39.7ZM99.3602 50.2C98.3335 50.2 97.4268 49.98 96.6402 49.54C95.8535 49.1 95.2402 48.4867 94.8002 47.7C94.3602 46.9133 94.1402 45.9933 94.1402 44.94C94.1402 43.8067 94.3602 42.84 94.8002 42.04C95.2535 41.24 95.8335 40.6267 96.5402 40.2C97.2602 39.76 98.0202 39.54 98.8202 39.54C99.4068 39.54 99.9735 39.6467 100.52 39.86C101.08 40.06 101.573 40.3667 102 40.78C102.44 41.18 102.787 41.6733 103.04 42.26C103.307 42.8467 103.453 43.5267 103.48 44.3C103.467 44.46 103.4 44.6 103.28 44.72C103.16 44.8267 103.02 44.88 102.86 44.88H94.8402L94.6002 43.8H102.48L102.22 44.04V43.64C102.167 43.0133 101.967 42.48 101.62 42.04C101.273 41.6 100.853 41.2667 100.36 41.04C99.8668 40.8133 99.3535 40.7 98.8202 40.7C98.4202 40.7 98.0068 40.78 97.5802 40.94C97.1668 41.1 96.7868 41.3533 96.4402 41.7C96.1068 42.0333 95.8335 42.4667 95.6202 43C95.4068 43.52 95.3002 44.14 95.3002 44.86C95.3002 45.6467 95.4602 46.36 95.7802 47C96.1002 47.64 96.5602 48.1467 97.1602 48.52C97.7735 48.8933 98.5002 49.08 99.3402 49.08C99.8068 49.08 100.227 49.0133 100.6 48.88C100.973 48.7467 101.3 48.5733 101.58 48.36C101.86 48.1333 102.093 47.9 102.28 47.66C102.427 47.54 102.573 47.48 102.72 47.48C102.853 47.48 102.967 47.5333 103.06 47.64C103.167 47.7467 103.22 47.8667 103.22 48C103.22 48.16 103.153 48.3 103.02 48.42C102.62 48.9 102.1 49.32 101.46 49.68C100.82 50.0267 100.12 50.2 99.3602 50.2ZM110.649 39.7C111.475 39.7 112.182 39.92 112.769 40.36C113.355 40.7867 113.755 41.4267 113.969 42.28L113.689 42.36L113.809 42C113.982 41.6 114.269 41.2267 114.669 40.88C115.082 40.52 115.549 40.2333 116.069 40.02C116.589 39.8067 117.115 39.7 117.649 39.7C118.489 39.7 119.162 39.88 119.669 40.24C120.189 40.6 120.562 41.0867 120.789 41.7C121.029 42.3 121.149 42.98 121.149 43.74V49.4C121.149 49.56 121.089 49.7 120.969 49.82C120.862 49.94 120.722 50 120.549 50C120.375 50 120.229 49.94 120.109 49.82C120.002 49.7 119.949 49.56 119.949 49.4V43.8C119.949 43.2533 119.862 42.7533 119.689 42.3C119.515 41.8467 119.242 41.4867 118.869 41.22C118.495 40.9533 117.995 40.82 117.369 40.82C116.822 40.82 116.295 40.9533 115.789 41.22C115.295 41.4867 114.889 41.8467 114.569 42.3C114.262 42.7533 114.109 43.2533 114.109 43.8V49.4C114.109 49.56 114.049 49.7 113.929 49.82C113.822 49.94 113.682 50 113.509 50C113.335 50 113.189 49.94 113.069 49.82C112.962 49.7 112.909 49.56 112.909 49.4V43.74C112.909 43.1933 112.829 42.7 112.669 42.26C112.509 41.82 112.249 41.4733 111.889 41.22C111.529 40.9533 111.042 40.82 110.429 40.82C109.882 40.82 109.362 40.9533 108.869 41.22C108.389 41.4733 107.995 41.82 107.689 42.26C107.395 42.7 107.249 43.1933 107.249 43.74V49.4C107.249 49.56 107.189 49.7 107.069 49.82C106.949 49.94 106.809 50 106.649 50C106.462 50 106.315 49.94 106.209 49.82C106.102 49.7 106.049 49.56 106.049 49.4V40.44C106.049 40.28 106.102 40.14 106.209 40.02C106.329 39.9 106.475 39.84 106.649 39.84C106.822 39.84 106.962 39.9 107.069 40.02C107.189 40.14 107.249 40.28 107.249 40.44V42.3L106.709 43.04C106.749 42.64 106.875 42.24 107.089 41.84C107.315 41.44 107.609 41.08 107.969 40.76C108.329 40.44 108.735 40.1867 109.189 40C109.655 39.8 110.142 39.7 110.649 39.7ZM128.911 50.2C127.884 50.2 126.978 49.98 126.191 49.54C125.404 49.1 124.791 48.4867 124.351 47.7C123.911 46.9133 123.691 45.9933 123.691 44.94C123.691 43.8067 123.911 42.84 124.351 42.04C124.804 41.24 125.384 40.6267 126.091 40.2C126.811 39.76 127.571 39.54 128.371 39.54C128.958 39.54 129.524 39.6467 130.071 39.86C130.631 40.06 131.124 40.3667 131.551 40.78C131.991 41.18 132.338 41.6733 132.591 42.26C132.858 42.8467 133.004 43.5267 133.031 44.3C133.018 44.46 132.951 44.6 132.831 44.72C132.711 44.8267 132.571 44.88 132.411 44.88H124.391L124.151 43.8H132.031L131.771 44.04V43.64C131.718 43.0133 131.518 42.48 131.171 42.04C130.824 41.6 130.404 41.2667 129.911 41.04C129.418 40.8133 128.904 40.7 128.371 40.7C127.971 40.7 127.558 40.78 127.131 40.94C126.718 41.1 126.338 41.3533 125.991 41.7C125.658 42.0333 125.384 42.4667 125.171 43C124.958 43.52 124.851 44.14 124.851 44.86C124.851 45.6467 125.011 46.36 125.331 47C125.651 47.64 126.111 48.1467 126.711 48.52C127.324 48.8933 128.051 49.08 128.891 49.08C129.358 49.08 129.778 49.0133 130.151 48.88C130.524 48.7467 130.851 48.5733 131.131 48.36C131.411 48.1333 131.644 47.9 131.831 47.66C131.978 47.54 132.124 47.48 132.271 47.48C132.404 47.48 132.518 47.5333 132.611 47.64C132.718 47.7467 132.771 47.8667 132.771 48C132.771 48.16 132.704 48.3 132.571 48.42C132.171 48.9 131.651 49.32 131.011 49.68C130.371 50.0267 129.671 50.2 128.911 50.2ZM135.76 50C135.533 50 135.36 49.9267 135.24 49.78C135.12 49.6333 135.06 49.4467 135.06 49.22V48.8C135.06 48.56 135.12 48.3733 135.24 48.24C135.36 48.1067 135.533 48.04 135.76 48.04H135.9C136.126 48.04 136.3 48.1067 136.42 48.24C136.54 48.3733 136.6 48.56 136.6 48.8V49.22C136.6 49.4467 136.54 49.6333 136.42 49.78C136.3 49.9267 136.126 50 135.9 50H135.76ZM143.713 39.54C144.353 39.54 144.939 39.6133 145.473 39.76C146.006 39.8933 146.433 40.08 146.753 40.32C147.086 40.56 147.253 40.82 147.253 41.1C147.253 41.2333 147.206 41.3667 147.113 41.5C147.019 41.62 146.893 41.68 146.733 41.68C146.573 41.68 146.439 41.64 146.333 41.56C146.239 41.48 146.139 41.3867 146.033 41.28C145.939 41.1733 145.799 41.0733 145.613 40.98C145.439 40.9 145.193 40.8267 144.873 40.76C144.553 40.6933 144.186 40.66 143.773 40.66C143.026 40.66 142.353 40.8467 141.753 41.22C141.153 41.5933 140.679 42.1 140.333 42.74C139.986 43.3667 139.813 44.0733 139.813 44.86C139.813 45.66 139.979 46.38 140.313 47.02C140.646 47.66 141.106 48.1667 141.693 48.54C142.279 48.9 142.966 49.08 143.753 49.08C144.286 49.08 144.699 49.0333 144.993 48.94C145.286 48.8467 145.539 48.74 145.753 48.62C146.006 48.4733 146.186 48.3333 146.293 48.2C146.413 48.0533 146.566 47.98 146.753 47.98C146.926 47.98 147.053 48.0333 147.133 48.14C147.226 48.2333 147.273 48.36 147.273 48.52C147.273 48.7333 147.113 48.9733 146.793 49.24C146.486 49.4933 146.059 49.72 145.513 49.92C144.966 50.1067 144.339 50.2 143.633 50.2C142.633 50.2 141.753 49.9667 140.993 49.5C140.246 49.0333 139.659 48.4 139.233 47.6C138.819 46.7867 138.613 45.8733 138.613 44.86C138.613 43.8867 138.826 43 139.253 42.2C139.679 41.4 140.273 40.76 141.033 40.28C141.806 39.7867 142.699 39.54 143.713 39.54ZM159.084 44.88C159.084 45.8933 158.864 46.8067 158.424 47.62C157.984 48.42 157.384 49.0533 156.624 49.52C155.864 49.9733 154.998 50.2 154.024 50.2C153.078 50.2 152.218 49.9733 151.444 49.52C150.684 49.0533 150.078 48.42 149.624 47.62C149.184 46.8067 148.964 45.8933 148.964 44.88C148.964 43.8533 149.184 42.94 149.624 42.14C150.078 41.34 150.684 40.7067 151.444 40.24C152.218 39.7733 153.078 39.54 154.024 39.54C154.998 39.54 155.864 39.7733 156.624 40.24C157.384 40.7067 157.984 41.34 158.424 42.14C158.864 42.94 159.084 43.8533 159.084 44.88ZM157.884 44.88C157.884 44.0667 157.718 43.3467 157.384 42.72C157.051 42.08 156.591 41.58 156.004 41.22C155.431 40.8467 154.771 40.66 154.024 40.66C153.304 40.66 152.651 40.8467 152.064 41.22C151.478 41.58 151.011 42.08 150.664 42.72C150.331 43.3467 150.164 44.0667 150.164 44.88C150.164 45.6933 150.331 46.4133 150.664 47.04C151.011 47.6667 151.478 48.1667 152.064 48.54C152.651 48.9 153.304 49.08 154.024 49.08C154.771 49.08 155.431 48.9 156.004 48.54C156.591 48.1667 157.051 47.6667 157.384 47.04C157.718 46.4133 157.884 45.6933 157.884 44.88ZM166.235 39.7C167.061 39.7 167.768 39.92 168.355 40.36C168.941 40.7867 169.341 41.4267 169.555 42.28L169.275 42.36L169.395 42C169.568 41.6 169.855 41.2267 170.255 40.88C170.668 40.52 171.135 40.2333 171.655 40.02C172.175 39.8067 172.701 39.7 173.235 39.7C174.075 39.7 174.748 39.88 175.255 40.24C175.775 40.6 176.148 41.0867 176.375 41.7C176.615 42.3 176.735 42.98 176.735 43.74V49.4C176.735 49.56 176.675 49.7 176.555 49.82C176.448 49.94 176.308 50 176.135 50C175.961 50 175.815 49.94 175.695 49.82C175.588 49.7 175.535 49.56 175.535 49.4V43.8C175.535 43.2533 175.448 42.7533 175.275 42.3C175.101 41.8467 174.828 41.4867 174.455 41.22C174.081 40.9533 173.581 40.82 172.955 40.82C172.408 40.82 171.881 40.9533 171.375 41.22C170.881 41.4867 170.475 41.8467 170.155 42.3C169.848 42.7533 169.695 43.2533 169.695 43.8V49.4C169.695 49.56 169.635 49.7 169.515 49.82C169.408 49.94 169.268 50 169.095 50C168.921 50 168.775 49.94 168.655 49.82C168.548 49.7 168.495 49.56 168.495 49.4V43.74C168.495 43.1933 168.415 42.7 168.255 42.26C168.095 41.82 167.835 41.4733 167.475 41.22C167.115 40.9533 166.628 40.82 166.015 40.82C165.468 40.82 164.948 40.9533 164.455 41.22C163.975 41.4733 163.581 41.82 163.275 42.26C162.981 42.7 162.835 43.1933 162.835 43.74V49.4C162.835 49.56 162.775 49.7 162.655 49.82C162.535 49.94 162.395 50 162.235 50C162.048 50 161.901 49.94 161.795 49.82C161.688 49.7 161.635 49.56 161.635 49.4V40.44C161.635 40.28 161.688 40.14 161.795 40.02C161.915 39.9 162.061 39.84 162.235 39.84C162.408 39.84 162.548 39.9 162.655 40.02C162.775 40.14 162.835 40.28 162.835 40.44V42.3L162.295 43.04C162.335 42.64 162.461 42.24 162.675 41.84C162.901 41.44 163.195 41.08 163.555 40.76C163.915 40.44 164.321 40.1867 164.775 40C165.241 39.8 165.728 39.7 166.235 39.7ZM2.45703 85C2.27036 85 2.11703 84.94 1.99703 84.82C1.89036 84.7 1.83703 84.56 1.83703 84.4V71.6C1.83703 71.44 1.89703 71.3 2.01703 71.18C2.13703 71.06 2.27703 71 2.43703 71H9.71703C9.89037 71 10.0304 71.06 10.137 71.18C10.257 71.2867 10.317 71.4267 10.317 71.6C10.317 71.76 10.257 71.9 10.137 72.02C10.0304 72.1267 9.89037 72.18 9.71703 72.18H2.97703L3.05703 72.06V77.38L2.95703 77.2H8.81703C8.99037 77.2 9.13037 77.26 9.23703 77.38C9.35703 77.4867 9.41703 77.62 9.41703 77.78C9.41703 77.9533 9.35703 78.0933 9.23703 78.2C9.13037 78.3067 8.99037 78.36 8.81703 78.36H2.91703L3.05703 78.2V84.4C3.05703 84.56 2.99703 84.7 2.87703 84.82C2.77036 84.94 2.63036 85 2.45703 85ZM13.2894 85C13.1027 85 12.956 84.94 12.8494 84.82C12.7427 84.7 12.6894 84.56 12.6894 84.4V75.44C12.6894 75.28 12.7427 75.14 12.8494 75.02C12.9694 74.9 13.116 74.84 13.2894 74.84C13.4627 74.84 13.6027 74.9 13.7094 75.02C13.8294 75.14 13.8894 75.28 13.8894 75.44V78.44L13.5894 78.5C13.6294 78.0333 13.7427 77.5733 13.9294 77.12C14.1294 76.6533 14.396 76.2267 14.7294 75.84C15.0627 75.4533 15.456 75.14 15.9094 74.9C16.376 74.66 16.896 74.54 17.4694 74.54C17.7094 74.54 17.9427 74.5933 18.1694 74.7C18.396 74.7933 18.5094 74.9533 18.5094 75.18C18.5094 75.38 18.456 75.5333 18.3494 75.64C18.2427 75.7467 18.116 75.8 17.9694 75.8C17.8494 75.8 17.716 75.7667 17.5694 75.7C17.436 75.6333 17.256 75.6 17.0294 75.6C16.656 75.6 16.2827 75.7133 15.9094 75.94C15.536 76.1533 15.196 76.4467 14.8894 76.82C14.5827 77.1933 14.336 77.6133 14.1494 78.08C13.976 78.5333 13.8894 78.9933 13.8894 79.46V84.4C13.8894 84.56 13.8294 84.7 13.7094 84.82C13.5894 84.94 13.4494 85 13.2894 85ZM28.5303 74.78C28.7036 74.78 28.8436 74.84 28.9503 74.96C29.0703 75.08 29.1303 75.2267 29.1303 75.4V84.4C29.1303 84.56 29.0703 84.7 28.9503 84.82C28.8303 84.94 28.6903 85 28.5303 85C28.357 85 28.2103 84.94 28.0903 84.82C27.9836 84.7 27.9303 84.56 27.9303 84.4V82.02L28.2703 81.86C28.2703 82.2333 28.1636 82.6133 27.9503 83C27.7503 83.3867 27.4703 83.7467 27.1103 84.08C26.7503 84.4133 26.3236 84.6867 25.8303 84.9C25.3503 85.1 24.8303 85.2 24.2703 85.2C23.3636 85.2 22.5503 84.9667 21.8303 84.5C21.1236 84.0333 20.5636 83.3933 20.1503 82.58C19.7503 81.7667 19.5503 80.8533 19.5503 79.84C19.5503 78.8 19.757 77.8867 20.1703 77.1C20.5836 76.3 21.1436 75.6733 21.8503 75.22C22.557 74.7667 23.357 74.54 24.2503 74.54C24.8236 74.54 25.357 74.64 25.8503 74.84C26.357 75.04 26.797 75.3133 27.1703 75.66C27.5436 76.0067 27.8303 76.4067 28.0303 76.86C28.2436 77.3 28.3503 77.76 28.3503 78.24L27.9303 77.94V75.4C27.9303 75.2267 27.9836 75.08 28.0903 74.96C28.2103 74.84 28.357 74.78 28.5303 74.78ZM24.3703 84.08C25.077 84.08 25.7036 83.9 26.2503 83.54C26.797 83.1667 27.2236 82.66 27.5303 82.02C27.8503 81.3667 28.0103 80.64 28.0103 79.84C28.0103 79.0533 27.8503 78.3467 27.5303 77.72C27.2236 77.0933 26.797 76.5933 26.2503 76.22C25.7036 75.8467 25.077 75.66 24.3703 75.66C23.677 75.66 23.0503 75.84 22.4903 76.2C21.9436 76.56 21.5103 77.0533 21.1903 77.68C20.8836 78.3067 20.7303 79.0267 20.7303 79.84C20.7303 80.64 20.8836 81.3667 21.1903 82.02C21.5103 82.66 21.9436 83.1667 22.4903 83.54C23.037 83.9 23.6636 84.08 24.3703 84.08ZM37.0992 74.54C37.9792 74.54 38.6792 74.72 39.1992 75.08C39.7326 75.4267 40.1126 75.9067 40.3392 76.52C40.5792 77.12 40.6992 77.7867 40.6992 78.52V84.4C40.6992 84.56 40.6392 84.7 40.5192 84.82C40.3992 84.94 40.2592 85 40.0992 85C39.9126 85 39.7659 84.94 39.6592 84.82C39.5526 84.7 39.4992 84.56 39.4992 84.4V78.58C39.4992 78.0467 39.4126 77.56 39.2392 77.12C39.0659 76.68 38.7792 76.3267 38.3792 76.06C37.9926 75.7933 37.4792 75.66 36.8392 75.66C36.2659 75.66 35.7192 75.7933 35.1992 76.06C34.6926 76.3267 34.2792 76.68 33.9592 77.12C33.6392 77.56 33.4792 78.0467 33.4792 78.58V84.4C33.4792 84.56 33.4192 84.7 33.2992 84.82C33.1792 84.94 33.0392 85 32.8792 85C32.6926 85 32.5459 84.94 32.4392 84.82C32.3326 84.7 32.2792 84.56 32.2792 84.4V75.44C32.2792 75.28 32.3326 75.14 32.4392 75.02C32.5592 74.9 32.7059 74.84 32.8792 74.84C33.0526 74.84 33.1926 74.9 33.2992 75.02C33.4192 75.14 33.4792 75.28 33.4792 75.44V77.12L33.0192 77.84C33.0459 77.4133 33.1792 77.0067 33.4192 76.62C33.6726 76.22 33.9926 75.8667 34.3792 75.56C34.7659 75.24 35.1926 74.9933 35.6592 74.82C36.1392 74.6333 36.6192 74.54 37.0992 74.54ZM48.3417 74.54C48.9817 74.54 49.5684 74.6133 50.1017 74.76C50.6351 74.8933 51.0617 75.08 51.3817 75.32C51.7151 75.56 51.8817 75.82 51.8817 76.1C51.8817 76.2333 51.8351 76.3667 51.7417 76.5C51.6484 76.62 51.5217 76.68 51.3617 76.68C51.2017 76.68 51.0684 76.64 50.9617 76.56C50.8684 76.48 50.7684 76.3867 50.6617 76.28C50.5684 76.1733 50.4284 76.0733 50.2417 75.98C50.0684 75.9 49.8217 75.8267 49.5017 75.76C49.1817 75.6933 48.8151 75.66 48.4017 75.66C47.6551 75.66 46.9817 75.8467 46.3817 76.22C45.7817 76.5933 45.3084 77.1 44.9617 77.74C44.6151 78.3667 44.4417 79.0733 44.4417 79.86C44.4417 80.66 44.6084 81.38 44.9417 82.02C45.2751 82.66 45.7351 83.1667 46.3217 83.54C46.9084 83.9 47.5951 84.08 48.3817 84.08C48.9151 84.08 49.3284 84.0333 49.6217 83.94C49.9151 83.8467 50.1684 83.74 50.3817 83.62C50.6351 83.4733 50.8151 83.3333 50.9217 83.2C51.0417 83.0533 51.1951 82.98 51.3817 82.98C51.5551 82.98 51.6817 83.0333 51.7617 83.14C51.8551 83.2333 51.9017 83.36 51.9017 83.52C51.9017 83.7333 51.7417 83.9733 51.4217 84.24C51.1151 84.4933 50.6884 84.72 50.1417 84.92C49.5951 85.1067 48.9684 85.2 48.2617 85.2C47.2617 85.2 46.3817 84.9667 45.6217 84.5C44.8751 84.0333 44.2884 83.4 43.8617 82.6C43.4484 81.7867 43.2417 80.8733 43.2417 79.86C43.2417 78.8867 43.4551 78 43.8817 77.2C44.3084 76.4 44.9017 75.76 45.6617 75.28C46.4351 74.7867 47.3284 74.54 48.3417 74.54ZM58.8133 85.2C57.7866 85.2 56.8799 84.98 56.0933 84.54C55.3066 84.1 54.6933 83.4867 54.2533 82.7C53.8133 81.9133 53.5933 80.9933 53.5933 79.94C53.5933 78.8067 53.8133 77.84 54.2533 77.04C54.7066 76.24 55.2866 75.6267 55.9933 75.2C56.7133 74.76 57.4733 74.54 58.2733 74.54C58.8599 74.54 59.4266 74.6467 59.9733 74.86C60.5333 75.06 61.0266 75.3667 61.4533 75.78C61.8933 76.18 62.2399 76.6733 62.4933 77.26C62.7599 77.8467 62.9066 78.5267 62.9333 79.3C62.9199 79.46 62.8533 79.6 62.7333 79.72C62.6133 79.8267 62.4733 79.88 62.3133 79.88H54.2933L54.0533 78.8H61.9333L61.6733 79.04V78.64C61.6199 78.0133 61.4199 77.48 61.0733 77.04C60.7266 76.6 60.3066 76.2667 59.8133 76.04C59.3199 75.8133 58.8066 75.7 58.2733 75.7C57.8733 75.7 57.4599 75.78 57.0333 75.94C56.6199 76.1 56.2399 76.3533 55.8933 76.7C55.5599 77.0333 55.2866 77.4667 55.0733 78C54.8599 78.52 54.7533 79.14 54.7533 79.86C54.7533 80.6467 54.9133 81.36 55.2333 82C55.5533 82.64 56.0133 83.1467 56.6133 83.52C57.2266 83.8933 57.9533 84.08 58.7933 84.08C59.2599 84.08 59.6799 84.0133 60.0533 83.88C60.4266 83.7467 60.7533 83.5733 61.0333 83.36C61.3133 83.1333 61.5466 82.9 61.7333 82.66C61.8799 82.54 62.0266 82.48 62.1733 82.48C62.3066 82.48 62.4199 82.5333 62.5133 82.64C62.6199 82.7467 62.6733 82.8667 62.6733 83C62.6733 83.16 62.6066 83.3 62.4733 83.42C62.0733 83.9 61.5533 84.32 60.9133 84.68C60.2733 85.0267 59.5733 85.2 58.8133 85.2ZM67.1019 85.16C67.1019 85.52 66.9952 85.8667 66.7819 86.2C66.5685 86.5467 66.3085 86.8267 66.0019 87.04C65.6952 87.2667 65.3952 87.38 65.1019 87.38C64.9952 87.38 64.8885 87.3467 64.7819 87.28C64.6885 87.2133 64.6419 87.0867 64.6419 86.9C64.6419 86.7133 64.7019 86.6067 64.8219 86.58C64.9552 86.5667 65.1152 86.5067 65.3019 86.4C65.5285 86.2933 65.7019 86.16 65.8219 86C65.9419 85.84 66.0019 85.6533 66.0019 85.44C66.0019 85.2667 65.9485 85.1333 65.8419 85.04C65.7485 84.9467 65.6352 84.9 65.5019 84.9C65.4085 84.9 65.3152 84.9133 65.2219 84.94C65.1285 84.9667 65.0419 85.0067 64.9619 85.06C64.8952 84.9933 64.8352 84.92 64.7819 84.84C64.7285 84.76 64.7085 84.66 64.7219 84.54C64.7485 84.3133 64.8685 84.12 65.0819 83.96C65.3085 83.7867 65.5685 83.7 65.8619 83.7C66.2219 83.7 66.5152 83.8467 66.7419 84.14C66.9819 84.4333 67.1019 84.7733 67.1019 85.16ZM80.4973 71C81.244 71 81.904 71.1733 82.4773 71.52C83.0507 71.8533 83.504 72.32 83.8373 72.92C84.1707 73.52 84.3373 74.2067 84.3373 74.98C84.3373 75.7533 84.1707 76.4533 83.8373 77.08C83.504 77.6933 83.0507 78.18 82.4773 78.54C81.904 78.9 81.244 79.08 80.4973 79.08H76.2573L76.3573 78.88V84.4C76.3573 84.56 76.2973 84.7 76.1773 84.82C76.0573 84.94 75.9173 85 75.7573 85C75.5707 85 75.424 84.94 75.3173 84.82C75.2107 84.7 75.1573 84.56 75.1573 84.4V71.6C75.1573 71.44 75.2173 71.3 75.3373 71.18C75.4573 71.06 75.5973 71 75.7573 71H80.4973ZM80.4973 77.92C81.0173 77.92 81.4707 77.7933 81.8573 77.54C82.244 77.2733 82.544 76.92 82.7573 76.48C82.984 76.0267 83.0973 75.5267 83.0973 74.98C83.0973 74.4333 82.984 73.9533 82.7573 73.54C82.544 73.1133 82.244 72.78 81.8573 72.54C81.4707 72.3 81.0173 72.18 80.4973 72.18H76.2573L76.3573 72V78.04L76.2373 77.92H80.4973ZM95.0538 74.78C95.2271 74.78 95.3671 74.84 95.4738 74.96C95.5938 75.08 95.6537 75.2267 95.6537 75.4V84.4C95.6537 84.56 95.5938 84.7 95.4738 84.82C95.3538 84.94 95.2138 85 95.0538 85C94.8804 85 94.7338 84.94 94.6138 84.82C94.5071 84.7 94.4538 84.56 94.4538 84.4V82.02L94.7938 81.86C94.7938 82.2333 94.6871 82.6133 94.4738 83C94.2738 83.3867 93.9938 83.7467 93.6338 84.08C93.2738 84.4133 92.8471 84.6867 92.3538 84.9C91.8738 85.1 91.3538 85.2 90.7938 85.2C89.8871 85.2 89.0738 84.9667 88.3538 84.5C87.6471 84.0333 87.0871 83.3933 86.6738 82.58C86.2738 81.7667 86.0738 80.8533 86.0738 79.84C86.0738 78.8 86.2804 77.8867 86.6938 77.1C87.1071 76.3 87.6671 75.6733 88.3738 75.22C89.0804 74.7667 89.8804 74.54 90.7738 74.54C91.3471 74.54 91.8804 74.64 92.3738 74.84C92.8804 75.04 93.3204 75.3133 93.6938 75.66C94.0671 76.0067 94.3538 76.4067 94.5538 76.86C94.7671 77.3 94.8738 77.76 94.8738 78.24L94.4538 77.94V75.4C94.4538 75.2267 94.5071 75.08 94.6138 74.96C94.7338 74.84 94.8804 74.78 95.0538 74.78ZM90.8938 84.08C91.6004 84.08 92.2271 83.9 92.7738 83.54C93.3204 83.1667 93.7471 82.66 94.0538 82.02C94.3738 81.3667 94.5338 80.64 94.5338 79.84C94.5338 79.0533 94.3738 78.3467 94.0538 77.72C93.7471 77.0933 93.3204 76.5933 92.7738 76.22C92.2271 75.8467 91.6004 75.66 90.8938 75.66C90.2004 75.66 89.5738 75.84 89.0138 76.2C88.4671 76.56 88.0338 77.0533 87.7138 77.68C87.4071 78.3067 87.2538 79.0267 87.2538 79.84C87.2538 80.64 87.4071 81.3667 87.7138 82.02C88.0338 82.66 88.4671 83.1667 89.0138 83.54C89.5604 83.9 90.1871 84.08 90.8938 84.08ZM99.4027 85C99.216 85 99.0693 84.94 98.9627 84.82C98.856 84.7 98.8027 84.56 98.8027 84.4V75.44C98.8027 75.28 98.856 75.14 98.9627 75.02C99.0827 74.9 99.2293 74.84 99.4027 74.84C99.576 74.84 99.716 74.9 99.8227 75.02C99.9427 75.14 100.003 75.28 100.003 75.44V78.44L99.7027 78.5C99.7427 78.0333 99.856 77.5733 100.043 77.12C100.243 76.6533 100.509 76.2267 100.843 75.84C101.176 75.4533 101.569 75.14 102.023 74.9C102.489 74.66 103.009 74.54 103.583 74.54C103.823 74.54 104.056 74.5933 104.283 74.7C104.509 74.7933 104.623 74.9533 104.623 75.18C104.623 75.38 104.569 75.5333 104.463 75.64C104.356 75.7467 104.229 75.8 104.083 75.8C103.963 75.8 103.829 75.7667 103.683 75.7C103.549 75.6333 103.369 75.6 103.143 75.6C102.769 75.6 102.396 75.7133 102.023 75.94C101.649 76.1533 101.309 76.4467 101.003 76.82C100.696 77.1933 100.449 77.6133 100.263 78.08C100.089 78.5333 100.003 78.9933 100.003 79.46V84.4C100.003 84.56 99.9427 84.7 99.8227 84.82C99.7027 84.94 99.5627 85 99.4027 85ZM107.658 84.4C107.658 84.56 107.598 84.7 107.478 84.82C107.358 84.94 107.218 85 107.058 85C106.885 85 106.738 84.94 106.618 84.82C106.511 84.7 106.458 84.56 106.458 84.4V75.2C106.458 75.04 106.511 74.9 106.618 74.78C106.738 74.66 106.885 74.6 107.058 74.6C107.231 74.6 107.371 74.66 107.478 74.78C107.598 74.9 107.658 75.04 107.658 75.2V84.4ZM107.058 73.26C106.778 73.26 106.565 73.2 106.418 73.08C106.285 72.9467 106.218 72.76 106.218 72.52V72.32C106.218 72.08 106.291 71.9 106.438 71.78C106.598 71.6467 106.811 71.58 107.078 71.58C107.331 71.58 107.525 71.6467 107.658 71.78C107.805 71.9 107.878 72.08 107.878 72.32V72.52C107.878 72.76 107.805 72.9467 107.658 73.08C107.525 73.2 107.325 73.26 107.058 73.26ZM110.195 83.38C110.089 83.22 110.035 83.0667 110.035 82.92C110.049 82.76 110.135 82.6333 110.295 82.54C110.402 82.4467 110.522 82.4067 110.655 82.42C110.802 82.4333 110.935 82.5 111.055 82.62C111.415 83.0867 111.849 83.4667 112.355 83.76C112.875 84.04 113.489 84.18 114.195 84.18C114.569 84.18 114.935 84.12 115.295 84C115.669 83.8667 115.975 83.6733 116.215 83.42C116.455 83.1533 116.575 82.82 116.575 82.42C116.575 82.0067 116.455 81.6733 116.215 81.42C115.975 81.1667 115.662 80.9667 115.275 80.82C114.902 80.6733 114.502 80.5467 114.075 80.44C113.622 80.32 113.182 80.1867 112.755 80.04C112.329 79.88 111.949 79.6867 111.615 79.46C111.295 79.22 111.035 78.9333 110.835 78.6C110.635 78.2667 110.535 77.86 110.535 77.38C110.535 76.82 110.689 76.3267 110.995 75.9C111.302 75.4733 111.715 75.14 112.235 74.9C112.769 74.66 113.369 74.54 114.035 74.54C114.369 74.54 114.729 74.5867 115.115 74.68C115.502 74.76 115.882 74.9 116.255 75.1C116.629 75.3 116.962 75.5733 117.255 75.92C117.375 76.04 117.435 76.18 117.435 76.34C117.435 76.4867 117.369 76.62 117.235 76.74C117.129 76.82 117.002 76.86 116.855 76.86C116.722 76.86 116.609 76.8067 116.515 76.7C116.195 76.34 115.815 76.0667 115.375 75.88C114.935 75.6933 114.462 75.6 113.955 75.6C113.569 75.6 113.202 75.6667 112.855 75.8C112.522 75.92 112.242 76.1067 112.015 76.36C111.789 76.6133 111.675 76.9467 111.675 77.36C111.702 77.7467 111.835 78.06 112.075 78.3C112.329 78.54 112.655 78.74 113.055 78.9C113.469 79.06 113.929 79.2067 114.435 79.34C114.862 79.4467 115.269 79.5733 115.655 79.72C116.055 79.8667 116.402 80.0533 116.695 80.28C117.002 80.4933 117.242 80.7667 117.415 81.1C117.602 81.4333 117.695 81.8533 117.695 82.36C117.695 82.9467 117.529 83.4533 117.195 83.88C116.875 84.3067 116.442 84.6333 115.895 84.86C115.349 85.0867 114.742 85.2 114.075 85.2C113.355 85.2 112.655 85.06 111.975 84.78C111.309 84.5 110.715 84.0333 110.195 83.38ZM121.75 85.16C121.75 85.52 121.644 85.8667 121.43 86.2C121.217 86.5467 120.957 86.8267 120.65 87.04C120.344 87.2667 120.044 87.38 119.75 87.38C119.644 87.38 119.537 87.3467 119.43 87.28C119.337 87.2133 119.29 87.0867 119.29 86.9C119.29 86.7133 119.35 86.6067 119.47 86.58C119.604 86.5667 119.764 86.5067 119.95 86.4C120.177 86.2933 120.35 86.16 120.47 86C120.59 85.84 120.65 85.6533 120.65 85.44C120.65 85.2667 120.597 85.1333 120.49 85.04C120.397 84.9467 120.284 84.9 120.15 84.9C120.057 84.9 119.964 84.9133 119.87 84.94C119.777 84.9667 119.69 85.0067 119.61 85.06C119.544 84.9933 119.484 84.92 119.43 84.84C119.377 84.76 119.357 84.66 119.37 84.54C119.397 84.3133 119.517 84.12 119.73 83.96C119.957 83.7867 120.217 83.7 120.51 83.7C120.87 83.7 121.164 83.8467 121.39 84.14C121.63 84.4333 121.75 84.7733 121.75 85.16ZM137.546 83.82C137.706 83.82 137.846 83.88 137.966 84C138.086 84.1067 138.146 84.24 138.146 84.4C138.146 84.5733 138.086 84.72 137.966 84.84C137.846 84.9467 137.706 85 137.546 85H130.406C130.232 85 130.086 84.94 129.966 84.82C129.859 84.7 129.806 84.56 129.806 84.4V71.6C129.806 71.44 129.866 71.3 129.986 71.18C130.106 71.06 130.259 71 130.446 71C130.606 71 130.746 71.06 130.866 71.18C130.999 71.3 131.066 71.44 131.066 71.6V84.16L130.686 83.82H137.546ZM141.31 84.4C141.31 84.56 141.25 84.7 141.13 84.82C141.01 84.94 140.87 85 140.71 85C140.537 85 140.39 84.94 140.27 84.82C140.164 84.7 140.11 84.56 140.11 84.4V75.2C140.11 75.04 140.164 74.9 140.27 74.78C140.39 74.66 140.537 74.6 140.71 74.6C140.884 74.6 141.024 74.66 141.13 74.78C141.25 74.9 141.31 75.04 141.31 75.2V84.4ZM140.71 73.26C140.43 73.26 140.217 73.2 140.07 73.08C139.937 72.9467 139.87 72.76 139.87 72.52V72.32C139.87 72.08 139.944 71.9 140.09 71.78C140.25 71.6467 140.464 71.58 140.73 71.58C140.984 71.58 141.177 71.6467 141.31 71.78C141.457 71.9 141.53 72.08 141.53 72.32V72.52C141.53 72.76 141.457 72.9467 141.31 73.08C141.177 73.2 140.977 73.26 140.71 73.26ZM145.748 84.4C145.748 84.56 145.688 84.7 145.568 84.82C145.448 84.94 145.308 85 145.148 85C144.974 85 144.828 84.94 144.708 84.82C144.601 84.7 144.548 84.56 144.548 84.4V70.8C144.548 70.64 144.608 70.5 144.728 70.38C144.848 70.26 144.988 70.2 145.148 70.2C145.321 70.2 145.461 70.26 145.568 70.38C145.688 70.5 145.748 70.64 145.748 70.8V84.4ZM150.357 84.4C150.357 84.56 150.297 84.7 150.177 84.82C150.057 84.94 149.917 85 149.757 85C149.584 85 149.437 84.94 149.317 84.82C149.21 84.7 149.157 84.56 149.157 84.4V70.8C149.157 70.64 149.217 70.5 149.337 70.38C149.457 70.26 149.597 70.2 149.757 70.2C149.93 70.2 150.07 70.26 150.177 70.38C150.297 70.5 150.357 70.64 150.357 70.8V84.4ZM158.071 85.2C157.044 85.2 156.138 84.98 155.351 84.54C154.564 84.1 153.951 83.4867 153.511 82.7C153.071 81.9133 152.851 80.9933 152.851 79.94C152.851 78.8067 153.071 77.84 153.511 77.04C153.964 76.24 154.544 75.6267 155.251 75.2C155.971 74.76 156.731 74.54 157.531 74.54C158.118 74.54 158.684 74.6467 159.231 74.86C159.791 75.06 160.284 75.3667 160.711 75.78C161.151 76.18 161.498 76.6733 161.751 77.26C162.018 77.8467 162.164 78.5267 162.191 79.3C162.178 79.46 162.111 79.6 161.991 79.72C161.871 79.8267 161.731 79.88 161.571 79.88H153.551L153.311 78.8H161.191L160.931 79.04V78.64C160.878 78.0133 160.678 77.48 160.331 77.04C159.984 76.6 159.564 76.2667 159.071 76.04C158.578 75.8133 158.064 75.7 157.531 75.7C157.131 75.7 156.718 75.78 156.291 75.94C155.878 76.1 155.498 76.3533 155.151 76.7C154.818 77.0333 154.544 77.4667 154.331 78C154.118 78.52 154.011 79.14 154.011 79.86C154.011 80.6467 154.171 81.36 154.491 82C154.811 82.64 155.271 83.1467 155.871 83.52C156.484 83.8933 157.211 84.08 158.051 84.08C158.518 84.08 158.938 84.0133 159.311 83.88C159.684 83.7467 160.011 83.5733 160.291 83.36C160.571 83.1333 160.804 82.9 160.991 82.66C161.138 82.54 161.284 82.48 161.431 82.48C161.564 82.48 161.678 82.5333 161.771 82.64C161.878 82.7467 161.931 82.8667 161.931 83C161.931 83.16 161.864 83.3 161.731 83.42C161.331 83.9 160.811 84.32 160.171 84.68C159.531 85.0267 158.831 85.2 158.071 85.2ZM178.608 70.2C178.782 70.2 178.922 70.26 179.028 70.38C179.148 70.4867 179.208 70.6267 179.208 70.8V84.4C179.208 84.56 179.148 84.7 179.028 84.82C178.908 84.94 178.768 85 178.608 85C178.435 85 178.288 84.94 178.168 84.82C178.062 84.7 178.008 84.56 178.008 84.4V82.02L178.348 81.74C178.348 82.1133 178.248 82.5067 178.048 82.92C177.848 83.32 177.562 83.6933 177.188 84.04C176.828 84.3867 176.402 84.6667 175.908 84.88C175.428 85.0933 174.908 85.2 174.348 85.2C173.455 85.2 172.648 84.9667 171.928 84.5C171.222 84.0333 170.662 83.4 170.248 82.6C169.835 81.8 169.628 80.8867 169.628 79.86C169.628 78.8467 169.835 77.94 170.248 77.14C170.662 76.3267 171.222 75.6933 171.928 75.24C172.635 74.7733 173.435 74.54 174.328 74.54C174.875 74.54 175.395 74.64 175.888 74.84C176.382 75.04 176.815 75.3133 177.188 75.66C177.575 76.0067 177.875 76.4067 178.088 76.86C178.315 77.3 178.428 77.76 178.428 78.24L178.008 77.94V70.8C178.008 70.64 178.062 70.5 178.168 70.38C178.288 70.26 178.435 70.2 178.608 70.2ZM174.448 84.08C175.168 84.08 175.795 83.9 176.328 83.54C176.875 83.1667 177.302 82.6667 177.608 82.04C177.928 81.4 178.088 80.6733 178.088 79.86C178.088 79.06 177.928 78.3467 177.608 77.72C177.302 77.08 176.875 76.58 176.328 76.22C175.782 75.8467 175.155 75.66 174.448 75.66C173.755 75.66 173.128 75.8467 172.568 76.22C172.022 76.58 171.588 77.08 171.268 77.72C170.962 78.3467 170.808 79.06 170.808 79.86C170.808 80.66 170.962 81.38 171.268 82.02C171.588 82.66 172.022 83.1667 172.568 83.54C173.128 83.9 173.755 84.08 174.448 84.08ZM186.977 85.2C185.951 85.2 185.044 84.98 184.257 84.54C183.471 84.1 182.857 83.4867 182.417 82.7C181.977 81.9133 181.757 80.9933 181.757 79.94C181.757 78.8067 181.977 77.84 182.417 77.04C182.871 76.24 183.451 75.6267 184.157 75.2C184.877 74.76 185.637 74.54 186.437 74.54C187.024 74.54 187.591 74.6467 188.137 74.86C188.697 75.06 189.191 75.3667 189.617 75.78C190.057 76.18 190.404 76.6733 190.657 77.26C190.924 77.8467 191.071 78.5267 191.097 79.3C191.084 79.46 191.017 79.6 190.897 79.72C190.777 79.8267 190.637 79.88 190.477 79.88H182.457L182.217 78.8H190.097L189.837 79.04V78.64C189.784 78.0133 189.584 77.48 189.237 77.04C188.891 76.6 188.471 76.2667 187.977 76.04C187.484 75.8133 186.971 75.7 186.437 75.7C186.037 75.7 185.624 75.78 185.197 75.94C184.784 76.1 184.404 76.3533 184.057 76.7C183.724 77.0333 183.451 77.4667 183.237 78C183.024 78.52 182.917 79.14 182.917 79.86C182.917 80.6467 183.077 81.36 183.397 82C183.717 82.64 184.177 83.1467 184.777 83.52C185.391 83.8933 186.117 84.08 186.957 84.08C187.424 84.08 187.844 84.0133 188.217 83.88C188.591 83.7467 188.917 83.5733 189.197 83.36C189.477 83.1333 189.711 82.9 189.897 82.66C190.044 82.54 190.191 82.48 190.337 82.48C190.471 82.48 190.584 82.5333 190.677 82.64C190.784 82.7467 190.837 82.8667 190.837 83C190.837 83.16 190.771 83.3 190.637 83.42C190.237 83.9 189.717 84.32 189.077 84.68C188.437 85.0267 187.737 85.2 186.977 85.2ZM200.455 84.4C200.455 84.56 200.395 84.7 200.275 84.82C200.155 84.94 200.015 85 199.855 85C199.681 85 199.535 84.94 199.415 84.82C199.308 84.7 199.255 84.56 199.255 84.4V70.8C199.255 70.64 199.315 70.5 199.435 70.38C199.555 70.26 199.695 70.2 199.855 70.2C200.028 70.2 200.168 70.26 200.275 70.38C200.395 70.5 200.455 70.64 200.455 70.8V84.4ZM212.124 74.78C212.297 74.78 212.437 74.84 212.544 74.96C212.664 75.08 212.724 75.2267 212.724 75.4V84.4C212.724 84.56 212.664 84.7 212.544 84.82C212.424 84.94 212.284 85 212.124 85C211.951 85 211.804 84.94 211.684 84.82C211.577 84.7 211.524 84.56 211.524 84.4V82.02L211.864 81.86C211.864 82.2333 211.757 82.6133 211.544 83C211.344 83.3867 211.064 83.7467 210.704 84.08C210.344 84.4133 209.917 84.6867 209.424 84.9C208.944 85.1 208.424 85.2 207.864 85.2C206.957 85.2 206.144 84.9667 205.424 84.5C204.717 84.0333 204.157 83.3933 203.744 82.58C203.344 81.7667 203.144 80.8533 203.144 79.84C203.144 78.8 203.351 77.8867 203.764 77.1C204.177 76.3 204.737 75.6733 205.444 75.22C206.151 74.7667 206.951 74.54 207.844 74.54C208.417 74.54 208.951 74.64 209.444 74.84C209.951 75.04 210.391 75.3133 210.764 75.66C211.137 76.0067 211.424 76.4067 211.624 76.86C211.837 77.3 211.944 77.76 211.944 78.24L211.524 77.94V75.4C211.524 75.2267 211.577 75.08 211.684 74.96C211.804 74.84 211.951 74.78 212.124 74.78ZM207.964 84.08C208.671 84.08 209.297 83.9 209.844 83.54C210.391 83.1667 210.817 82.66 211.124 82.02C211.444 81.3667 211.604 80.64 211.604 79.84C211.604 79.0533 211.444 78.3467 211.124 77.72C210.817 77.0933 210.391 76.5933 209.844 76.22C209.297 75.8467 208.671 75.66 207.964 75.66C207.271 75.66 206.644 75.84 206.084 76.2C205.537 76.56 205.104 77.0533 204.784 77.68C204.477 78.3067 204.324 79.0267 204.324 79.84C204.324 80.64 204.477 81.3667 204.784 82.02C205.104 82.66 205.537 83.1667 206.084 83.54C206.631 83.9 207.257 84.08 207.964 84.08ZM231.862 72.04C232.022 72.1467 232.115 72.2867 232.142 72.46C232.168 72.62 232.128 72.78 232.022 72.94C231.928 73.06 231.808 73.1267 231.662 73.14C231.515 73.1533 231.375 73.1267 231.242 73.06C230.735 72.7267 230.188 72.4667 229.602 72.28C229.028 72.0933 228.408 72 227.742 72C226.928 72 226.168 72.1467 225.462 72.44C224.768 72.72 224.162 73.1333 223.642 73.68C223.122 74.2133 222.715 74.8467 222.422 75.58C222.142 76.3133 222.002 77.12 222.002 78C222.002 78.9067 222.148 79.7333 222.442 80.48C222.735 81.2133 223.142 81.8467 223.662 82.38C224.195 82.9133 224.808 83.32 225.502 83.6C226.195 83.88 226.942 84.02 227.742 84.02C228.395 84.02 229.008 83.9267 229.582 83.74C230.168 83.5533 230.715 83.3 231.222 82.98C231.355 82.9 231.495 82.8733 231.642 82.9C231.802 82.9133 231.928 82.9867 232.022 83.12C232.142 83.2667 232.182 83.4267 232.142 83.6C232.115 83.76 232.028 83.8867 231.882 83.98C231.548 84.1933 231.155 84.3933 230.702 84.58C230.248 84.7667 229.768 84.9133 229.262 85.02C228.755 85.14 228.248 85.2 227.742 85.2C226.782 85.2 225.882 85.0267 225.042 84.68C224.202 84.3333 223.455 83.8467 222.802 83.22C222.148 82.58 221.635 81.82 221.262 80.94C220.902 80.06 220.722 79.08 220.722 78C220.722 76.96 220.902 76.0067 221.262 75.14C221.622 74.26 222.122 73.5 222.762 72.86C223.402 72.22 224.148 71.72 225.002 71.36C225.855 71 226.768 70.82 227.742 70.82C228.502 70.82 229.235 70.9267 229.942 71.14C230.648 71.3533 231.288 71.6533 231.862 72.04ZM235.568 84.4C235.568 84.56 235.508 84.7 235.388 84.82C235.268 84.94 235.128 85 234.968 85C234.795 85 234.648 84.94 234.528 84.82C234.421 84.7 234.368 84.56 234.368 84.4V75.2C234.368 75.04 234.421 74.9 234.528 74.78C234.648 74.66 234.795 74.6 234.968 74.6C235.141 74.6 235.281 74.66 235.388 74.78C235.508 74.9 235.568 75.04 235.568 75.2V84.4ZM234.968 73.26C234.688 73.26 234.475 73.2 234.328 73.08C234.195 72.9467 234.128 72.76 234.128 72.52V72.32C234.128 72.08 234.201 71.9 234.348 71.78C234.508 71.6467 234.721 71.58 234.988 71.58C235.241 71.58 235.435 71.6467 235.568 71.78C235.715 71.9 235.788 72.08 235.788 72.32V72.52C235.788 72.76 235.715 72.9467 235.568 73.08C235.435 73.2 235.235 73.26 234.968 73.26ZM238.025 74.82H242.685C242.845 74.82 242.979 74.88 243.085 75C243.192 75.1067 243.245 75.24 243.245 75.4C243.245 75.5467 243.192 75.6733 243.085 75.78C242.979 75.8867 242.845 75.94 242.685 75.94H238.025C237.865 75.94 237.725 75.8867 237.605 75.78C237.499 75.66 237.445 75.5267 237.445 75.38C237.445 75.22 237.499 75.0867 237.605 74.98C237.725 74.8733 237.865 74.82 238.025 74.82ZM240.085 72C240.259 72 240.399 72.06 240.505 72.18C240.625 72.3 240.685 72.44 240.685 72.6V82.64C240.685 83.0133 240.732 83.2933 240.825 83.48C240.932 83.6667 241.065 83.7933 241.225 83.86C241.385 83.9133 241.545 83.94 241.705 83.94C241.812 83.94 241.905 83.9267 241.985 83.9C242.079 83.86 242.179 83.84 242.285 83.84C242.405 83.84 242.505 83.8867 242.585 83.98C242.679 84.0733 242.725 84.1933 242.725 84.34C242.725 84.5267 242.619 84.6867 242.405 84.82C242.192 84.94 241.939 85 241.645 85C241.525 85 241.345 84.9933 241.105 84.98C240.865 84.9533 240.619 84.88 240.365 84.76C240.112 84.6267 239.899 84.4 239.725 84.08C239.565 83.76 239.485 83.3 239.485 82.7V72.6C239.485 72.44 239.539 72.3 239.645 72.18C239.765 72.06 239.912 72 240.085 72ZM249.985 85.2C248.958 85.2 248.052 84.98 247.265 84.54C246.478 84.1 245.865 83.4867 245.425 82.7C244.985 81.9133 244.765 80.9933 244.765 79.94C244.765 78.8067 244.985 77.84 245.425 77.04C245.878 76.24 246.458 75.6267 247.165 75.2C247.885 74.76 248.645 74.54 249.445 74.54C250.032 74.54 250.598 74.6467 251.145 74.86C251.705 75.06 252.198 75.3667 252.625 75.78C253.065 76.18 253.412 76.6733 253.665 77.26C253.932 77.8467 254.078 78.5267 254.105 79.3C254.092 79.46 254.025 79.6 253.905 79.72C253.785 79.8267 253.645 79.88 253.485 79.88H245.465L245.225 78.8H253.105L252.845 79.04V78.64C252.792 78.0133 252.592 77.48 252.245 77.04C251.898 76.6 251.478 76.2667 250.985 76.04C250.492 75.8133 249.978 75.7 249.445 75.7C249.045 75.7 248.632 75.78 248.205 75.94C247.792 76.1 247.412 76.3533 247.065 76.7C246.732 77.0333 246.458 77.4667 246.245 78C246.032 78.52 245.925 79.14 245.925 79.86C245.925 80.6467 246.085 81.36 246.405 82C246.725 82.64 247.185 83.1467 247.785 83.52C248.398 83.8933 249.125 84.08 249.965 84.08C250.432 84.08 250.852 84.0133 251.225 83.88C251.598 83.7467 251.925 83.5733 252.205 83.36C252.485 83.1333 252.718 82.9 252.905 82.66C253.052 82.54 253.198 82.48 253.345 82.48C253.478 82.48 253.592 82.5333 253.685 82.64C253.792 82.7467 253.845 82.8667 253.845 83C253.845 83.16 253.778 83.3 253.645 83.42C253.245 83.9 252.725 84.32 252.085 84.68C251.445 85.0267 250.745 85.2 249.985 85.2ZM265.083 85C264.896 85 264.743 84.94 264.623 84.82C264.503 84.7 264.443 84.56 264.443 84.4V72.36L264.663 72.56L262.003 74.34C261.896 74.42 261.783 74.46 261.663 74.46C261.503 74.46 261.356 74.3933 261.222 74.26C261.103 74.1267 261.043 73.98 261.043 73.82C261.043 73.6067 261.149 73.44 261.363 73.32L264.703 71.1C264.783 71.0467 264.863 71.0133 264.943 71C265.036 70.9867 265.116 70.9867 265.183 71C265.356 71.0133 265.489 71.08 265.583 71.2C265.676 71.3067 265.723 71.44 265.723 71.6V84.4C265.723 84.56 265.663 84.7 265.543 84.82C265.423 84.94 265.269 85 265.083 85ZM274.405 74.7C275.312 74.7 276.112 74.9267 276.805 75.38C277.512 75.82 278.072 76.4333 278.485 77.22C278.898 77.9933 279.105 78.8867 279.105 79.9C279.105 80.9133 278.898 81.8133 278.485 82.6C278.072 83.3867 277.512 84.0067 276.805 84.46C276.098 84.9133 275.305 85.14 274.425 85.14C273.958 85.14 273.512 85.0733 273.085 84.94C272.672 84.7933 272.292 84.6 271.945 84.36C271.598 84.12 271.292 83.84 271.025 83.52C270.758 83.1867 270.545 82.8267 270.385 82.44L270.745 82.18V88.4C270.745 88.56 270.685 88.7 270.565 88.82C270.458 88.94 270.318 89 270.145 89C269.972 89 269.825 88.94 269.705 88.82C269.598 88.7 269.545 88.56 269.545 88.4V75.36C269.545 75.1867 269.598 75.04 269.705 74.92C269.812 74.8 269.958 74.74 270.145 74.74C270.318 74.74 270.458 74.8 270.565 74.92C270.685 75.04 270.745 75.1867 270.745 75.36V77.52L270.465 77.36C270.598 76.9467 270.792 76.58 271.045 76.26C271.312 75.9267 271.618 75.6467 271.965 75.42C272.312 75.18 272.692 75 273.105 74.88C273.518 74.76 273.952 74.7 274.405 74.7ZM274.305 75.82C273.585 75.82 272.952 76 272.405 76.36C271.858 76.7067 271.425 77.1867 271.105 77.8C270.798 78.4 270.645 79.1 270.645 79.9C270.645 80.6867 270.798 81.3933 271.105 82.02C271.425 82.6467 271.858 83.14 272.405 83.5C272.952 83.8467 273.585 84.02 274.305 84.02C275.012 84.02 275.632 83.8467 276.165 83.5C276.712 83.14 277.145 82.6467 277.465 82.02C277.785 81.3933 277.945 80.6867 277.945 79.9C277.945 79.1133 277.785 78.4133 277.465 77.8C277.145 77.1867 276.712 76.7067 276.165 76.36C275.632 76 275.012 75.82 274.305 75.82Z" fill="white"/>
<path d="M-0.0429688 52.5H178.295V53.5H-0.0429688V52.5Z" fill="white"/>
</svg>
