<svg width="295" height="90" viewBox="0 0 295 90" fill="none" xmlns="http://www.w3.org/2000/svg">
<path d="M15.7143 12.6964C15.7143 12.6183 15.7143 12.5402 15.6808 12.4621C15.6027 12.2277 15.0558 11.9821 14.8326 11.8705C14.1964 11.5134 13.5491 11.1674 12.9241 10.7991C12.6339 10.6205 12.2768 10.2857 11.9308 10.2857C11.25 10.2857 10.2567 12.3058 9.65402 12.3058C9.35268 12.3058 8.96205 12.0268 8.6942 11.8705C6.66295 10.7433 5.2567 9.33705 4.12946 7.3058C3.97321 7.03795 3.6942 6.64732 3.6942 6.34598C3.6942 5.7433 5.71429 4.75 5.71429 4.0692C5.71429 3.72321 5.37946 3.36607 5.20089 3.07589C4.83259 2.45089 4.48661 1.80357 4.12946 1.16741C4.01786 0.944196 3.77232 0.397321 3.53795 0.319196C3.45982 0.285713 3.3817 0.285713 3.30357 0.285713C2.90179 0.285713 2.12054 0.464285 1.75223 0.631696C1.20536 0.866071 0.848214 1.49107 0.569196 1.9933C0.212054 2.65179 0 3.32143 0 4.0692C0 5.10714 0.424107 6.04464 0.770089 6.9933C1.01563 7.67411 1.31696 8.33259 1.69643 8.94643C2.8683 10.8438 5.15625 13.1317 7.05357 14.3036C7.66741 14.683 8.32589 14.9844 9.0067 15.2299C9.95536 15.5759 10.8929 16 11.9308 16C12.6786 16 13.3482 15.7879 14.0067 15.4308C14.5089 15.1518 15.1339 14.7946 15.3683 14.2478C15.5357 13.8795 15.7143 13.0982 15.7143 12.6964ZM20 41C20 40.8103 19.9219 40.6317 19.7879 40.4978L14.0737 34.7835C13.9397 34.6496 13.7612 34.5714 13.5714 34.5714C13.1808 34.5714 12.8571 34.8951 12.8571 35.2857V38.1429H10.3571C6.69643 38.1429 2.14286 38.7902 0.591518 42.6406C0.122768 43.8237 0 45.1071 0 46.3571C0 47.9196 0.78125 49.9621 1.41741 51.3906C1.54018 51.6473 1.66295 52.0045 1.83036 52.2388C1.90848 52.3504 1.98661 52.4286 2.14286 52.4286C2.36607 52.4286 2.5 52.25 2.5 52.0379C2.5 51.8594 2.45536 51.6585 2.4442 51.4799C2.41071 51.0223 2.38839 50.5647 2.38839 50.1071C2.38839 44.7835 5.54688 43.8571 10.3571 43.8571H12.8571V46.7143C12.8571 47.1049 13.1808 47.4286 13.5714 47.4286C13.7612 47.4286 13.9397 47.3504 14.0737 47.2165L19.7879 41.5022C19.9219 41.3683 20 41.1897 20 41ZM8.57143 76C8.57143 77.5737 7.28795 78.8571 5.71429 78.8571C4.14063 78.8571 2.85714 77.5737 2.85714 76C2.85714 74.4263 4.14063 73.1429 5.71429 73.1429C7.28795 73.1429 8.57143 74.4263 8.57143 76ZM11.4286 76C11.4286 72.8415 8.87277 70.2857 5.71429 70.2857C2.5558 70.2857 0 72.8415 0 76C0 76.6808 0.078125 77.3839 0.368304 77.9978L4.44196 86.6362C4.66518 87.1272 5.17857 87.4286 5.71429 87.4286C6.25 87.4286 6.76339 87.1272 6.99777 86.6362L11.0603 77.9978C11.3504 77.3839 11.4286 76.6808 11.4286 76Z" fill="#DFEEB6"/>
<path d="M30.7827 9C31.1027 9 31.3693 9.10667 31.5827 9.32C31.796 9.52 31.9027 9.78 31.9027 10.1C31.9027 10.42 31.796 10.6867 31.5827 10.9C31.3693 11.1 31.1027 11.2 30.7827 11.2H27.9827V13.82C27.9827 14.1933 27.856 14.5 27.6027 14.74C27.3627 14.98 27.056 15.1 26.6827 15.1C26.3093 15.1 25.996 14.98 25.7427 14.74C25.5027 14.5 25.3827 14.1933 25.3827 13.82V11.2H22.6427C22.3227 11.2 22.056 11.0933 21.8427 10.88C21.6293 10.6667 21.5227 10.4 21.5227 10.08C21.5227 9.76 21.6293 9.5 21.8427 9.3C22.056 9.1 22.3227 9 22.6427 9H25.3827V6.02C25.3827 5.64667 25.5027 5.34 25.7427 5.1C25.996 4.86 26.316 4.74 26.7027 4.74C27.076 4.74 27.3827 4.86 27.6227 5.1C27.8627 5.34 27.9827 5.64667 27.9827 6.02V9H30.7827ZM38.2052 7.12C38.9385 7.14667 39.5852 7.36 40.1452 7.76C40.7185 8.16 41.1585 8.68667 41.4652 9.34C41.7718 9.98 41.9252 10.6667 41.9252 11.4C41.9252 12.3733 41.7052 13.2267 41.2652 13.96C40.8252 14.68 40.2052 15.2333 39.4052 15.62C38.6052 16.0067 37.6718 16.2 36.6052 16.2C36.1252 16.2 35.6452 16.14 35.1652 16.02C34.6852 15.9 34.2652 15.74 33.9052 15.54C33.4118 15.2733 33.1652 14.9133 33.1652 14.46C33.1652 14.14 33.2785 13.8467 33.5052 13.58C33.7318 13.3133 34.0052 13.18 34.3252 13.18C34.5918 13.18 34.8785 13.28 35.1852 13.48C35.7585 13.92 36.3918 14.14 37.0852 14.14C37.4985 14.14 37.8918 14.04 38.2652 13.84C38.6385 13.6267 38.9385 13.3267 39.1652 12.94C39.4052 12.54 39.5252 12.0867 39.5252 11.58C39.5252 10.86 39.3052 10.3 38.8652 9.9C38.4385 9.5 37.9185 9.3 37.3052 9.3C37.0385 9.3 36.8052 9.32667 36.6052 9.38C36.4052 9.43333 36.2852 9.46667 36.2452 9.48C35.8985 9.58667 35.6118 9.64 35.3852 9.64C35.0918 9.64 34.8585 9.54 34.6852 9.34C34.5118 9.12667 34.4252 8.86667 34.4252 8.56C34.4252 8.37333 34.4585 8.20667 34.5252 8.06C34.5918 7.91333 34.7052 7.75333 34.8652 7.58L37.9652 4.2H34.0052C33.6852 4.2 33.4185 4.09333 33.2052 3.88C32.9918 3.66667 32.8852 3.4 32.8852 3.08C32.8852 2.77333 32.9918 2.52 33.2052 2.32C33.4185 2.10667 33.6852 2 34.0052 2H40.1252C40.5252 2 40.8318 2.11333 41.0452 2.34C41.2585 2.55333 41.3652 2.84 41.3652 3.2C41.3652 3.52 41.2052 3.84 40.8852 4.16L38.2052 7.12ZM51.2944 8.7C51.921 9.07333 52.4077 9.54 52.7544 10.1C53.1144 10.6467 53.2944 11.22 53.2944 11.82C53.2944 12.58 53.081 13.28 52.6544 13.92C52.241 14.56 51.6744 15.0667 50.9544 15.44C50.2477 15.8133 49.4677 16 48.6144 16C47.761 16 46.9744 15.8133 46.2544 15.44C45.5477 15.0667 44.981 14.56 44.5544 13.92C44.141 13.28 43.9344 12.58 43.9344 11.82C43.9344 10.54 44.581 9.5 45.8744 8.7C45.4077 8.43333 45.021 8.07333 44.7144 7.62C44.421 7.16667 44.2744 6.63333 44.2744 6.02C44.2744 5.28667 44.4677 4.61333 44.8544 4C45.241 3.38667 45.761 2.9 46.4144 2.54C47.081 2.18 47.8144 2 48.6144 2C49.4144 2 50.141 2.18 50.7944 2.54C51.461 2.9 51.981 3.38667 52.3544 4C52.741 4.61333 52.9344 5.28667 52.9344 6.02C52.9344 6.68667 52.7744 7.24 52.4544 7.68C52.1477 8.10667 51.761 8.44667 51.2944 8.7ZM48.6144 4.2C48.0544 4.2 47.5877 4.38 47.2144 4.74C46.8544 5.08667 46.6744 5.52667 46.6744 6.06C46.6744 6.60667 46.8544 7.06 47.2144 7.42C47.5877 7.76667 48.0544 7.94 48.6144 7.94C49.161 7.94 49.6144 7.76 49.9744 7.4C50.3477 7.04 50.5344 6.59333 50.5344 6.06C50.5344 5.52667 50.3477 5.08667 49.9744 4.74C49.6144 4.38 49.161 4.2 48.6144 4.2ZM48.6144 13.8C49.2544 13.8 49.7944 13.6067 50.2344 13.22C50.6744 12.82 50.8944 12.34 50.8944 11.78C50.8944 11.2067 50.6744 10.7267 50.2344 10.34C49.7944 9.94 49.2544 9.74 48.6144 9.74C47.9744 9.74 47.4344 9.94 46.9944 10.34C46.5544 10.7267 46.3344 11.2067 46.3344 11.78C46.3344 12.34 46.5544 12.82 46.9944 13.22C47.4344 13.6067 47.9744 13.8 48.6144 13.8ZM68.6577 8.7C69.2843 9.07333 69.771 9.54 70.1177 10.1C70.4777 10.6467 70.6577 11.22 70.6577 11.82C70.6577 12.58 70.4443 13.28 70.0177 13.92C69.6043 14.56 69.0377 15.0667 68.3177 15.44C67.611 15.8133 66.831 16 65.9777 16C65.1243 16 64.3377 15.8133 63.6177 15.44C62.911 15.0667 62.3443 14.56 61.9177 13.92C61.5043 13.28 61.2977 12.58 61.2977 11.82C61.2977 10.54 61.9443 9.5 63.2377 8.7C62.771 8.43333 62.3843 8.07333 62.0777 7.62C61.7843 7.16667 61.6377 6.63333 61.6377 6.02C61.6377 5.28667 61.831 4.61333 62.2177 4C62.6043 3.38667 63.1243 2.9 63.7777 2.54C64.4443 2.18 65.1777 2 65.9777 2C66.7777 2 67.5043 2.18 68.1577 2.54C68.8243 2.9 69.3443 3.38667 69.7177 4C70.1043 4.61333 70.2977 5.28667 70.2977 6.02C70.2977 6.68667 70.1377 7.24 69.8177 7.68C69.511 8.10667 69.1243 8.44667 68.6577 8.7ZM65.9777 4.2C65.4177 4.2 64.951 4.38 64.5777 4.74C64.2177 5.08667 64.0377 5.52667 64.0377 6.06C64.0377 6.60667 64.2177 7.06 64.5777 7.42C64.951 7.76667 65.4177 7.94 65.9777 7.94C66.5243 7.94 66.9777 7.76 67.3377 7.4C67.711 7.04 67.8977 6.59333 67.8977 6.06C67.8977 5.52667 67.711 5.08667 67.3377 4.74C66.9777 4.38 66.5243 4.2 65.9777 4.2ZM65.9777 13.8C66.6177 13.8 67.1577 13.6067 67.5977 13.22C68.0377 12.82 68.2577 12.34 68.2577 11.78C68.2577 11.2067 68.0377 10.7267 67.5977 10.34C67.1577 9.94 66.6177 9.74 65.9777 9.74C65.3377 9.74 64.7977 9.94 64.3577 10.34C63.9177 10.7267 63.6977 11.2067 63.6977 11.78C63.6977 12.34 63.9177 12.82 64.3577 13.22C64.7977 13.6067 65.3377 13.8 65.9777 13.8ZM77.3155 1.74C78.2355 1.74 79.0555 2 79.7755 2.52C80.4955 3.02667 81.0488 3.7 81.4355 4.54C81.8221 5.36667 82.0155 6.25333 82.0155 7.2C82.0155 8.17333 81.8421 9.24667 81.4955 10.42C81.1621 11.58 80.5421 12.68 79.6355 13.72C78.7421 14.76 77.5221 15.5 75.9755 15.94C75.8155 15.98 75.6621 16 75.5155 16C75.1688 16 74.8821 15.9133 74.6555 15.74C74.4288 15.5533 74.3155 15.2667 74.3155 14.88C74.3155 14.5867 74.4088 14.3333 74.5955 14.12C74.7955 13.8933 75.0555 13.7333 75.3755 13.64C76.2155 13.4 76.9888 12.9733 77.6955 12.36C78.4155 11.7467 78.9421 11.0133 79.2755 10.16C78.6088 10.7333 77.8488 11.02 76.9955 11.02C76.3021 11.02 75.6155 10.8133 74.9355 10.4C74.2688 9.97333 73.7221 9.40667 73.2955 8.7C72.8688 7.98 72.6555 7.20667 72.6555 6.38C72.6555 5.54 72.8621 4.76667 73.2755 4.06C73.7021 3.34 74.2688 2.77333 74.9755 2.36C75.6821 1.94667 76.4621 1.74 77.3155 1.74ZM77.3155 8.82C77.9555 8.82 78.4888 8.58667 78.9155 8.12C79.3555 7.65333 79.5755 7.07333 79.5755 6.38C79.5755 5.68667 79.3555 5.10667 78.9155 4.64C78.4888 4.17333 77.9555 3.94 77.3155 3.94C76.6888 3.94 76.1555 4.17333 75.7155 4.64C75.2755 5.10667 75.0555 5.68667 75.0555 6.38C75.0555 7.07333 75.2755 7.65333 75.7155 8.12C76.1555 8.58667 76.6888 8.82 77.3155 8.82ZM88.2725 1.74C89.1925 1.74 90.0125 2 90.7325 2.52C91.4525 3.02667 92.0058 3.7 92.3925 4.54C92.7792 5.36667 92.9725 6.25333 92.9725 7.2C92.9725 8.17333 92.7992 9.24667 92.4525 10.42C92.1192 11.58 91.4992 12.68 90.5925 13.72C89.6992 14.76 88.4792 15.5 86.9325 15.94C86.7725 15.98 86.6192 16 86.4725 16C86.1258 16 85.8392 15.9133 85.6125 15.74C85.3858 15.5533 85.2725 15.2667 85.2725 14.88C85.2725 14.5867 85.3658 14.3333 85.5525 14.12C85.7525 13.8933 86.0125 13.7333 86.3325 13.64C87.1725 13.4 87.9458 12.9733 88.6525 12.36C89.3725 11.7467 89.8992 11.0133 90.2325 10.16C89.5658 10.7333 88.8058 11.02 87.9525 11.02C87.2592 11.02 86.5725 10.8133 85.8925 10.4C85.2258 9.97333 84.6792 9.40667 84.2525 8.7C83.8258 7.98 83.6125 7.20667 83.6125 6.38C83.6125 5.54 83.8192 4.76667 84.2325 4.06C84.6592 3.34 85.2258 2.77333 85.9325 2.36C86.6392 1.94667 87.4192 1.74 88.2725 1.74ZM88.2725 8.82C88.9125 8.82 89.4458 8.58667 89.8725 8.12C90.3125 7.65333 90.5325 7.07333 90.5325 6.38C90.5325 5.68667 90.3125 5.10667 89.8725 4.64C89.4458 4.17333 88.9125 3.94 88.2725 3.94C87.6458 3.94 87.1125 4.17333 86.6725 4.64C86.2325 5.10667 86.0125 5.68667 86.0125 6.38C86.0125 7.07333 86.2325 7.65333 86.6725 8.12C87.1125 8.58667 87.6458 8.82 88.2725 8.82ZM110.815 10C111.135 10 111.402 10.1067 111.615 10.32C111.828 10.5333 111.935 10.8 111.935 11.12C111.935 11.4267 111.828 11.6867 111.615 11.9C111.402 12.1 111.135 12.2 110.815 12.2H109.975V14.78C109.975 15.1267 109.855 15.42 109.615 15.66C109.388 15.8867 109.102 16 108.755 16C108.422 16 108.142 15.8867 107.915 15.66C107.688 15.42 107.575 15.1267 107.575 14.78V12.2H102.375C102.082 12.2 101.808 12.0867 101.555 11.86C101.302 11.62 101.175 11.34 101.175 11.02C101.175 10.7267 101.275 10.46 101.475 10.22L107.795 2.48C108.048 2.16 108.382 2 108.795 2C109.128 2 109.408 2.12 109.635 2.36C109.862 2.58667 109.975 2.87333 109.975 3.22V10H110.815ZM107.575 10V6L104.335 10H107.575ZM119.455 7.12C120.188 7.14667 120.835 7.36 121.395 7.76C121.968 8.16 122.408 8.68667 122.715 9.34C123.022 9.98 123.175 10.6667 123.175 11.4C123.175 12.3733 122.955 13.2267 122.515 13.96C122.075 14.68 121.455 15.2333 120.655 15.62C119.855 16.0067 118.922 16.2 117.855 16.2C117.375 16.2 116.895 16.14 116.415 16.02C115.935 15.9 115.515 15.74 115.155 15.54C114.662 15.2733 114.415 14.9133 114.415 14.46C114.415 14.14 114.528 13.8467 114.755 13.58C114.982 13.3133 115.255 13.18 115.575 13.18C115.842 13.18 116.128 13.28 116.435 13.48C117.008 13.92 117.642 14.14 118.335 14.14C118.748 14.14 119.142 14.04 119.515 13.84C119.888 13.6267 120.188 13.3267 120.415 12.94C120.655 12.54 120.775 12.0867 120.775 11.58C120.775 10.86 120.555 10.3 120.115 9.9C119.688 9.5 119.168 9.3 118.555 9.3C118.288 9.3 118.055 9.32667 117.855 9.38C117.655 9.43333 117.535 9.46667 117.495 9.48C117.148 9.58667 116.862 9.64 116.635 9.64C116.342 9.64 116.108 9.54 115.935 9.34C115.762 9.12667 115.675 8.86667 115.675 8.56C115.675 8.37333 115.708 8.20667 115.775 8.06C115.842 7.91333 115.955 7.75333 116.115 7.58L119.215 4.2H115.255C114.935 4.2 114.668 4.09333 114.455 3.88C114.242 3.66667 114.135 3.4 114.135 3.08C114.135 2.77333 114.242 2.52 114.455 2.32C114.668 2.10667 114.935 2 115.255 2H121.375C121.775 2 122.082 2.11333 122.295 2.34C122.508 2.55333 122.615 2.84 122.615 3.2C122.615 3.52 122.455 3.84 122.135 4.16L119.455 7.12ZM132.984 13.8C133.304 13.8 133.571 13.9067 133.784 14.12C133.998 14.3333 134.104 14.6 134.104 14.92C134.104 15.2267 133.998 15.4867 133.784 15.7C133.571 15.9 133.304 16 132.984 16H126.184C125.838 16 125.564 15.8933 125.364 15.68C125.164 15.4667 125.064 15.1933 125.064 14.86C125.064 14.5267 125.184 14.2333 125.424 13.98L129.784 9.32C130.278 8.78667 130.664 8.25333 130.944 7.72C131.238 7.17333 131.384 6.67333 131.384 6.22C131.384 5.62 131.171 5.1 130.744 4.66C130.318 4.22 129.824 4 129.264 4C128.878 4 128.484 4.13333 128.084 4.4C127.698 4.65333 127.344 4.99333 127.024 5.42C126.784 5.74 126.478 5.9 126.104 5.9C125.811 5.9 125.538 5.78667 125.284 5.56C125.044 5.33333 124.924 5.08 124.924 4.8C124.924 4.6 124.991 4.4 125.124 4.2C125.258 3.98667 125.458 3.74667 125.724 3.48C126.231 2.97333 126.818 2.56667 127.484 2.26C128.151 1.95333 128.791 1.8 129.404 1.8C130.284 1.8 131.058 1.98667 131.724 2.36C132.391 2.73333 132.904 3.24667 133.264 3.9C133.624 4.55333 133.804 5.29333 133.804 6.12C133.804 6.93333 133.584 7.77333 133.144 8.64C132.718 9.49333 132.138 10.3133 131.404 11.1L128.864 13.8H132.984ZM140.847 16.2C139.727 16.2 138.76 15.9 137.947 15.3C137.147 14.7 136.54 13.86 136.127 12.78C135.714 11.6867 135.507 10.4267 135.507 9C135.507 7.57333 135.714 6.32 136.127 5.24C136.54 4.14667 137.147 3.3 137.947 2.7C138.76 2.1 139.727 1.8 140.847 1.8C141.967 1.8 142.927 2.1 143.727 2.7C144.54 3.3 145.154 4.14667 145.567 5.24C145.98 6.32 146.187 7.57333 146.187 9C146.187 10.4267 145.98 11.6867 145.567 12.78C145.154 13.86 144.54 14.7 143.727 15.3C142.927 15.9 141.967 16.2 140.847 16.2ZM140.847 13.8C141.7 13.8 142.367 13.3933 142.847 12.58C143.34 11.7667 143.587 10.5733 143.587 9C143.587 7.42667 143.34 6.23333 142.847 5.42C142.367 4.60667 141.7 4.2 140.847 4.2C139.994 4.2 139.32 4.60667 138.827 5.42C138.347 6.23333 138.107 7.42667 138.107 9C138.107 10.5733 138.347 11.7667 138.827 12.58C139.32 13.3933 139.994 13.8 140.847 13.8ZM158.518 7.12C159.251 7.14667 159.898 7.36 160.458 7.76C161.031 8.16 161.471 8.68667 161.778 9.34C162.084 9.98 162.238 10.6667 162.238 11.4C162.238 12.3733 162.018 13.2267 161.578 13.96C161.138 14.68 160.518 15.2333 159.718 15.62C158.918 16.0067 157.984 16.2 156.918 16.2C156.438 16.2 155.958 16.14 155.478 16.02C154.998 15.9 154.578 15.74 154.218 15.54C153.724 15.2733 153.478 14.9133 153.478 14.46C153.478 14.14 153.591 13.8467 153.818 13.58C154.044 13.3133 154.318 13.18 154.638 13.18C154.904 13.18 155.191 13.28 155.498 13.48C156.071 13.92 156.704 14.14 157.398 14.14C157.811 14.14 158.204 14.04 158.578 13.84C158.951 13.6267 159.251 13.3267 159.478 12.94C159.718 12.54 159.838 12.0867 159.838 11.58C159.838 10.86 159.618 10.3 159.178 9.9C158.751 9.5 158.231 9.3 157.618 9.3C157.351 9.3 157.118 9.32667 156.918 9.38C156.718 9.43333 156.598 9.46667 156.558 9.48C156.211 9.58667 155.924 9.64 155.698 9.64C155.404 9.64 155.171 9.54 154.998 9.34C154.824 9.12667 154.738 8.86667 154.738 8.56C154.738 8.37333 154.771 8.20667 154.838 8.06C154.904 7.91333 155.018 7.75333 155.178 7.58L158.278 4.2H154.318C153.998 4.2 153.731 4.09333 153.518 3.88C153.304 3.66667 153.198 3.4 153.198 3.08C153.198 2.77333 153.304 2.52 153.518 2.32C153.731 2.10667 153.998 2 154.318 2H160.438C160.838 2 161.144 2.11333 161.358 2.34C161.571 2.55333 161.678 2.84 161.678 3.2C161.678 3.52 161.518 3.84 161.198 4.16L158.518 7.12ZM172.047 13.8C172.367 13.8 172.634 13.9067 172.847 14.12C173.06 14.3333 173.167 14.6 173.167 14.92C173.167 15.2267 173.06 15.4867 172.847 15.7C172.634 15.9 172.367 16 172.047 16H165.247C164.9 16 164.627 15.8933 164.427 15.68C164.227 15.4667 164.127 15.1933 164.127 14.86C164.127 14.5267 164.247 14.2333 164.487 13.98L168.847 9.32C169.34 8.78667 169.727 8.25333 170.007 7.72C170.3 7.17333 170.447 6.67333 170.447 6.22C170.447 5.62 170.234 5.1 169.807 4.66C169.38 4.22 168.887 4 168.327 4C167.94 4 167.547 4.13333 167.147 4.4C166.76 4.65333 166.407 4.99333 166.087 5.42C165.847 5.74 165.54 5.9 165.167 5.9C164.874 5.9 164.6 5.78667 164.347 5.56C164.107 5.33333 163.987 5.08 163.987 4.8C163.987 4.6 164.054 4.4 164.187 4.2C164.32 3.98667 164.52 3.74667 164.787 3.48C165.294 2.97333 165.88 2.56667 166.547 2.26C167.214 1.95333 167.854 1.8 168.467 1.8C169.347 1.8 170.12 1.98667 170.787 2.36C171.454 2.73333 171.967 3.24667 172.327 3.9C172.687 4.55333 172.867 5.29333 172.867 6.12C172.867 6.93333 172.647 7.77333 172.207 8.64C171.78 9.49333 171.2 10.3133 170.467 11.1L167.927 13.8H172.047ZM31.7088 40.7C32.9088 40.7 33.8021 41.08 34.3888 41.84C34.9754 42.5867 35.2688 43.5533 35.2688 44.74V50.4C35.2688 50.5733 35.2088 50.72 35.0888 50.84C34.9821 50.9467 34.8421 51 34.6688 51C34.4954 51 34.3488 50.9467 34.2288 50.84C34.1221 50.72 34.0688 50.5733 34.0688 50.4V44.74C34.0688 43.8733 33.8621 43.1733 33.4488 42.64C33.0354 42.0933 32.3888 41.82 31.5088 41.82C30.9488 41.82 30.4154 41.9533 29.9088 42.22C29.4154 42.4867 29.0154 42.8467 28.7088 43.3C28.4021 43.74 28.2488 44.22 28.2488 44.74V50.4C28.2488 50.5733 28.1888 50.72 28.0688 50.84C27.9621 50.9467 27.8221 51 27.6488 51C27.4754 51 27.3288 50.9467 27.2088 50.84C27.1021 50.72 27.0488 50.5733 27.0488 50.4V36.8C27.0488 36.6267 27.1021 36.4867 27.2088 36.38C27.3288 36.26 27.4754 36.2 27.6488 36.2C27.8221 36.2 27.9621 36.26 28.0688 36.38C28.1888 36.4867 28.2488 36.6267 28.2488 36.8V42.66C28.6088 42.0867 29.1088 41.62 29.7488 41.26C30.3888 40.8867 31.0421 40.7 31.7088 40.7ZM46.7159 40.78C46.8893 40.78 47.0293 40.84 47.1359 40.96C47.2559 41.08 47.3159 41.2267 47.3159 41.4V50.4C47.3159 50.5733 47.2559 50.72 47.1359 50.84C47.0293 50.9467 46.8893 51 46.7159 51C46.5426 51 46.3959 50.9467 46.2759 50.84C46.1693 50.72 46.1159 50.5733 46.1159 50.4V49.06C45.7826 49.66 45.2826 50.1667 44.6159 50.58C43.9493 50.9933 43.2226 51.2 42.4359 51.2C41.5426 51.2 40.7359 50.9667 40.0159 50.5C39.3093 50.0333 38.7493 49.3933 38.3359 48.58C37.9359 47.7667 37.7359 46.8533 37.7359 45.84C37.7359 44.8267 37.9426 43.92 38.3559 43.12C38.7693 42.3067 39.3293 41.6733 40.0359 41.22C40.7559 40.7667 41.5493 40.54 42.4159 40.54C43.2159 40.54 43.9493 40.7333 44.6159 41.12C45.2826 41.5067 45.7826 42.0133 46.1159 42.64V41.4C46.1159 41.2267 46.1693 41.08 46.2759 40.96C46.3959 40.84 46.5426 40.78 46.7159 40.78ZM42.5559 50.08C43.2493 50.08 43.8693 49.9 44.4159 49.54C44.9759 49.1667 45.4093 48.66 45.7159 48.02C46.0359 47.3667 46.1959 46.64 46.1959 45.84C46.1959 45.0667 46.0359 44.36 45.7159 43.72C45.4093 43.08 44.9759 42.58 44.4159 42.22C43.8693 41.8467 43.2493 41.66 42.5559 41.66C41.8626 41.66 41.2359 41.84 40.6759 42.2C40.1293 42.56 39.6959 43.06 39.3759 43.7C39.0693 44.3267 38.9159 45.04 38.9159 45.84C38.9159 46.64 39.0693 47.3667 39.3759 48.02C39.6826 48.66 40.1093 49.1667 40.6559 49.54C41.2159 49.9 41.8493 50.08 42.5559 50.08ZM51.6072 50.4C51.6072 50.5733 51.5472 50.72 51.4272 50.84C51.3205 50.9467 51.1805 51 51.0072 51C50.8339 51 50.6872 50.9467 50.5672 50.84C50.4605 50.72 50.4072 50.5733 50.4072 50.4V41.2C50.4072 41.0267 50.4605 40.8867 50.5672 40.78C50.6872 40.66 50.8339 40.6 51.0072 40.6C51.1805 40.6 51.3205 40.66 51.4272 40.78C51.5472 40.8867 51.6072 41.0267 51.6072 41.2V50.4ZM51.0072 39.26C50.7405 39.26 50.5339 39.2 50.3872 39.08C50.2405 38.9467 50.1672 38.76 50.1672 38.52V38.32C50.1672 38.08 50.2405 37.9 50.3872 37.78C50.5472 37.6467 50.7605 37.58 51.0272 37.58C51.5605 37.58 51.8272 37.8267 51.8272 38.32V38.52C51.8272 38.76 51.7539 38.9467 51.6072 39.08C51.4739 39.2 51.2739 39.26 51.0072 39.26ZM64.6645 36.8C66.1312 36.8 67.3912 37.08 68.4445 37.64C69.4979 38.2 70.2912 38.9533 70.8245 39.9C71.3712 40.8467 71.6445 41.9067 71.6445 43.08C71.6445 44.1733 71.4379 45.2533 71.0245 46.32C70.6112 47.3733 70.0379 48.2333 69.3045 48.9C68.5845 49.5667 67.7912 49.9 66.9245 49.9C66.3512 49.9 65.8845 49.7467 65.5245 49.44C65.1779 49.1333 65.0045 48.7267 65.0045 48.22C65.0045 48.1 65.0112 48.0067 65.0245 47.94L65.0845 47.44C64.6312 48.2267 64.0645 48.8333 63.3845 49.26C62.7179 49.6867 62.0245 49.9 61.3045 49.9C60.7445 49.9 60.2379 49.7533 59.7845 49.46C59.3445 49.1667 58.9979 48.7733 58.7445 48.28C58.4912 47.7733 58.3645 47.2133 58.3645 46.6C58.3645 45.7467 58.5779 44.8667 59.0045 43.96C59.4445 43.0533 60.0312 42.3 60.7645 41.7C61.4979 41.1 62.3045 40.8 63.1845 40.8C63.8512 40.8 64.4179 40.98 64.8845 41.34C65.3512 41.7 65.6779 42.18 65.8645 42.78L66.0645 41.5C66.1179 41.14 66.3245 40.96 66.6845 40.96C67.0445 40.96 67.2245 41.1267 67.2245 41.46C67.2245 41.5533 67.2179 41.6267 67.2045 41.68L66.2645 47.68C66.2512 47.7467 66.2445 47.84 66.2445 47.96C66.2445 48.2933 66.3312 48.5467 66.5045 48.72C66.6912 48.88 66.9045 48.96 67.1445 48.96C67.7579 48.96 68.3312 48.6733 68.8645 48.1C69.4112 47.5267 69.8445 46.7867 70.1645 45.88C70.4845 44.96 70.6445 44.0267 70.6445 43.08C70.6445 42.04 70.3979 41.12 69.9045 40.32C69.4112 39.5067 68.7112 38.88 67.8045 38.44C66.9112 37.9867 65.8645 37.76 64.6645 37.76C62.8379 37.76 61.1845 38.1267 59.7045 38.86C58.2245 39.5933 57.0579 40.6533 56.2045 42.04C55.3645 43.4133 54.9445 45.0267 54.9445 46.88C54.9445 48 55.1712 49.0467 55.6245 50.02C56.0912 50.9933 56.8045 51.78 57.7645 52.38C58.7379 52.98 59.9579 53.28 61.4245 53.28C62.1045 53.28 62.6979 53.2267 63.2045 53.12C63.7245 53.0267 64.1579 52.9067 64.5045 52.76C64.8645 52.6133 65.3379 52.3933 65.9245 52.1C66.0045 52.06 66.0845 52.04 66.1645 52.04C66.3245 52.04 66.4445 52.1333 66.5245 52.32C66.5512 52.4 66.5645 52.46 66.5645 52.5C66.5645 52.6867 66.4445 52.84 66.2045 52.96C65.3645 53.3733 64.6045 53.6867 63.9245 53.9C63.2445 54.1267 62.4112 54.24 61.4245 54.24C59.7179 54.24 58.3045 53.8933 57.1845 53.2C56.0645 52.5067 55.2445 51.6067 54.7245 50.5C54.2045 49.38 53.9445 48.1733 53.9445 46.88C53.9445 44.8533 54.4179 43.08 55.3645 41.56C56.3112 40.0267 57.5979 38.8533 59.2245 38.04C60.8512 37.2133 62.6645 36.8 64.6645 36.8ZM65.5045 44.54C65.5179 44.4467 65.5245 44.3067 65.5245 44.12C65.5245 43.4267 65.3112 42.8733 64.8845 42.46C64.4579 42.0333 63.9045 41.82 63.2245 41.82C62.5045 41.82 61.8645 42.0733 61.3045 42.58C60.7579 43.0733 60.3312 43.6933 60.0245 44.44C59.7179 45.1733 59.5645 45.88 59.5645 46.56C59.5645 47.28 59.7445 47.8467 60.1045 48.26C60.4779 48.6733 60.9379 48.88 61.4845 48.88C62.0979 48.88 62.7112 48.6667 63.3245 48.24C63.9379 47.8133 64.4512 47.2667 64.8645 46.6C65.2779 45.92 65.4912 45.2333 65.5045 44.54ZM82.4581 40.78C82.6315 40.78 82.7715 40.84 82.8781 40.96C82.9981 41.08 83.0581 41.2267 83.0581 41.4V50.4C83.0581 50.5733 82.9981 50.72 82.8781 50.84C82.7715 50.9467 82.6315 51 82.4581 51C82.2848 51 82.1381 50.9467 82.0181 50.84C81.9115 50.72 81.8581 50.5733 81.8581 50.4V49.06C81.5248 49.66 81.0248 50.1667 80.3581 50.58C79.6915 50.9933 78.9648 51.2 78.1781 51.2C77.2848 51.2 76.4781 50.9667 75.7581 50.5C75.0515 50.0333 74.4915 49.3933 74.0781 48.58C73.6781 47.7667 73.4781 46.8533 73.4781 45.84C73.4781 44.8267 73.6848 43.92 74.0981 43.12C74.5115 42.3067 75.0715 41.6733 75.7781 41.22C76.4981 40.7667 77.2915 40.54 78.1581 40.54C78.9581 40.54 79.6915 40.7333 80.3581 41.12C81.0248 41.5067 81.5248 42.0133 81.8581 42.64V41.4C81.8581 41.2267 81.9115 41.08 82.0181 40.96C82.1381 40.84 82.2848 40.78 82.4581 40.78ZM78.2981 50.08C78.9915 50.08 79.6115 49.9 80.1581 49.54C80.7181 49.1667 81.1515 48.66 81.4581 48.02C81.7781 47.3667 81.9381 46.64 81.9381 45.84C81.9381 45.0667 81.7781 44.36 81.4581 43.72C81.1515 43.08 80.7181 42.58 80.1581 42.22C79.6115 41.8467 78.9915 41.66 78.2981 41.66C77.6048 41.66 76.9781 41.84 76.4181 42.2C75.8715 42.56 75.4381 43.06 75.1181 43.7C74.8115 44.3267 74.6581 45.04 74.6581 45.84C74.6581 46.64 74.8115 47.3667 75.1181 48.02C75.4248 48.66 75.8515 49.1667 76.3981 49.54C76.9581 49.9 77.5915 50.08 78.2981 50.08ZM87.5094 50.4C87.5094 50.5733 87.4494 50.72 87.3294 50.84C87.2227 50.9467 87.0827 51 86.9094 51C86.736 51 86.5894 50.9467 86.4694 50.84C86.3627 50.72 86.3094 50.5733 86.3094 50.4V36.8C86.3094 36.6267 86.3627 36.4867 86.4694 36.38C86.5894 36.26 86.736 36.2 86.9094 36.2C87.0827 36.2 87.2227 36.26 87.3294 36.38C87.4494 36.4867 87.5094 36.6267 87.5094 36.8V50.4ZM99.2434 45.3C99.2434 45.46 99.1834 45.6 99.0634 45.72C98.9434 45.8267 98.8034 45.88 98.6434 45.88H91.0834C91.0834 46.68 91.2434 47.4 91.5634 48.04C91.8968 48.6667 92.3634 49.1667 92.9634 49.54C93.5768 49.9 94.2968 50.08 95.1234 50.08C95.7634 50.08 96.3368 49.9467 96.8434 49.68C97.3501 49.4133 97.7568 49.0733 98.0634 48.66C98.2101 48.54 98.3501 48.48 98.4834 48.48C98.6168 48.48 98.7368 48.5333 98.8434 48.64C98.9501 48.7467 99.0034 48.8667 99.0034 49C99.0034 49.1467 98.9368 49.2867 98.8034 49.42C98.3768 49.94 97.8368 50.3667 97.1834 50.7C96.5434 51.0333 95.8634 51.2 95.1434 51.2C94.1168 51.2 93.2101 50.98 92.4234 50.54C91.6368 50.1 91.0234 49.4867 90.5834 48.7C90.1434 47.9 89.9234 46.98 89.9234 45.94C89.9234 44.8467 90.1368 43.8933 90.5634 43.08C91.0034 42.2533 91.5834 41.6267 92.3034 41.2C93.0234 40.76 93.7901 40.54 94.6034 40.54C95.4034 40.54 96.1501 40.7267 96.8434 41.1C97.5501 41.4733 98.1234 42.02 98.5634 42.74C99.0034 43.46 99.2301 44.3133 99.2434 45.3ZM94.6034 41.7C93.8301 41.7 93.1101 41.9667 92.4434 42.5C91.7901 43.0333 91.3701 43.8 91.1834 44.8H98.0034V44.64C97.9368 44.04 97.7368 43.52 97.4034 43.08C97.0701 42.6267 96.6501 42.2867 96.1434 42.06C95.6501 41.82 95.1368 41.7 94.6034 41.7ZM103.717 41.94V48.64C103.717 49.1467 103.81 49.4933 103.997 49.68C104.183 49.8533 104.43 49.94 104.737 49.94C104.817 49.94 104.917 49.9267 105.037 49.9C105.157 49.86 105.25 49.84 105.317 49.84C105.437 49.84 105.537 49.8933 105.617 50C105.71 50.0933 105.757 50.2067 105.757 50.34C105.757 50.5267 105.65 50.6867 105.437 50.82C105.223 50.94 104.97 51 104.677 51C104.317 51 103.997 50.9667 103.717 50.9C103.437 50.8333 103.163 50.6333 102.897 50.3C102.643 49.9667 102.517 49.4333 102.517 48.7V41.94H101.057C100.897 41.94 100.757 41.8867 100.637 41.78C100.53 41.6733 100.477 41.54 100.477 41.38C100.477 41.22 100.53 41.0867 100.637 40.98C100.757 40.8733 100.897 40.82 101.057 40.82H102.517V38.6C102.517 38.4267 102.57 38.2867 102.677 38.18C102.797 38.06 102.943 38 103.117 38C103.29 38 103.43 38.06 103.537 38.18C103.657 38.2867 103.717 38.4267 103.717 38.6V40.82H105.717C105.863 40.82 105.99 40.88 106.097 41C106.217 41.12 106.277 41.2533 106.277 41.4C106.277 41.56 106.223 41.6933 106.117 41.8C106.01 41.8933 105.877 41.94 105.717 41.94H103.717ZM113.154 40.7C114.354 40.7 115.247 41.08 115.834 41.84C116.421 42.5867 116.714 43.5533 116.714 44.74V50.4C116.714 50.5733 116.654 50.72 116.534 50.84C116.427 50.9467 116.287 51 116.114 51C115.941 51 115.794 50.9467 115.674 50.84C115.567 50.72 115.514 50.5733 115.514 50.4V44.74C115.514 43.8733 115.307 43.1733 114.894 42.64C114.481 42.0933 113.834 41.82 112.954 41.82C112.394 41.82 111.861 41.9533 111.354 42.22C110.861 42.4867 110.461 42.8467 110.154 43.3C109.847 43.74 109.694 44.22 109.694 44.74V50.4C109.694 50.5733 109.634 50.72 109.514 50.84C109.407 50.9467 109.267 51 109.094 51C108.921 51 108.774 50.9467 108.654 50.84C108.547 50.72 108.494 50.5733 108.494 50.4V36.8C108.494 36.6267 108.547 36.4867 108.654 36.38C108.774 36.26 108.921 36.2 109.094 36.2C109.267 36.2 109.407 36.26 109.514 36.38C109.634 36.4867 109.694 36.6267 109.694 36.8V42.66C110.054 42.0867 110.554 41.62 111.194 41.26C111.834 40.8867 112.487 40.7 113.154 40.7ZM128.501 45.3C128.501 45.46 128.441 45.6 128.321 45.72C128.201 45.8267 128.061 45.88 127.901 45.88H120.341C120.341 46.68 120.501 47.4 120.821 48.04C121.155 48.6667 121.621 49.1667 122.221 49.54C122.835 49.9 123.555 50.08 124.381 50.08C125.021 50.08 125.595 49.9467 126.101 49.68C126.608 49.4133 127.015 49.0733 127.321 48.66C127.468 48.54 127.608 48.48 127.741 48.48C127.875 48.48 127.995 48.5333 128.101 48.64C128.208 48.7467 128.261 48.8667 128.261 49C128.261 49.1467 128.195 49.2867 128.061 49.42C127.635 49.94 127.095 50.3667 126.441 50.7C125.801 51.0333 125.121 51.2 124.401 51.2C123.375 51.2 122.468 50.98 121.681 50.54C120.895 50.1 120.281 49.4867 119.841 48.7C119.401 47.9 119.181 46.98 119.181 45.94C119.181 44.8467 119.395 43.8933 119.821 43.08C120.261 42.2533 120.841 41.6267 121.561 41.2C122.281 40.76 123.048 40.54 123.861 40.54C124.661 40.54 125.408 40.7267 126.101 41.1C126.808 41.4733 127.381 42.02 127.821 42.74C128.261 43.46 128.488 44.3133 128.501 45.3ZM123.861 41.7C123.088 41.7 122.368 41.9667 121.701 42.5C121.048 43.0333 120.628 43.8 120.441 44.8H127.261V44.64C127.195 44.04 126.995 43.52 126.661 43.08C126.328 42.6267 125.908 42.2867 125.401 42.06C124.908 41.82 124.395 41.7 123.861 41.7ZM142.575 40.7C143.775 40.7 144.655 41.0733 145.215 41.82C145.788 42.5533 146.075 43.5267 146.075 44.74V50.4C146.075 50.5733 146.015 50.72 145.895 50.84C145.788 50.9467 145.648 51 145.475 51C145.301 51 145.155 50.9467 145.035 50.84C144.928 50.72 144.875 50.5733 144.875 50.4V44.8C144.875 43.92 144.661 43.2067 144.235 42.66C143.821 42.1 143.175 41.82 142.295 41.82C141.735 41.82 141.201 41.9533 140.695 42.22C140.201 42.4867 139.801 42.8533 139.495 43.32C139.188 43.7733 139.035 44.2667 139.035 44.8V50.4C139.035 50.5733 138.975 50.72 138.855 50.84C138.748 50.9467 138.608 51 138.435 51C138.261 51 138.115 50.9467 137.995 50.84C137.888 50.72 137.835 50.5733 137.835 50.4V44.74C137.835 43.8733 137.635 43.1733 137.235 42.64C136.835 42.0933 136.208 41.82 135.355 41.82C134.808 41.82 134.288 41.9533 133.795 42.22C133.315 42.4867 132.921 42.8467 132.615 43.3C132.321 43.74 132.175 44.22 132.175 44.74V50.4C132.175 50.5733 132.115 50.72 131.995 50.84C131.888 50.9467 131.748 51 131.575 51C131.401 51 131.255 50.9467 131.135 50.84C131.028 50.72 130.975 50.5733 130.975 50.4V41.44C130.975 41.2667 131.028 41.1267 131.135 41.02C131.255 40.9 131.401 40.84 131.575 40.84C131.748 40.84 131.888 40.9 131.995 41.02C132.115 41.1267 132.175 41.2667 132.175 41.44V42.6C132.535 42.0533 133.021 41.6 133.635 41.24C134.248 40.88 134.895 40.7 135.575 40.7C136.348 40.7 137.015 40.8867 137.575 41.26C138.135 41.6333 138.535 42.18 138.775 42.9C139.055 42.3133 139.568 41.8 140.315 41.36C141.061 40.92 141.815 40.7 142.575 40.7ZM157.857 45.3C157.857 45.46 157.797 45.6 157.677 45.72C157.557 45.8267 157.417 45.88 157.257 45.88H149.697C149.697 46.68 149.857 47.4 150.177 48.04C150.51 48.6667 150.977 49.1667 151.577 49.54C152.19 49.9 152.91 50.08 153.737 50.08C154.377 50.08 154.95 49.9467 155.457 49.68C155.963 49.4133 156.37 49.0733 156.677 48.66C156.823 48.54 156.963 48.48 157.097 48.48C157.23 48.48 157.35 48.5333 157.457 48.64C157.563 48.7467 157.617 48.8667 157.617 49C157.617 49.1467 157.55 49.2867 157.417 49.42C156.99 49.94 156.45 50.3667 155.797 50.7C155.157 51.0333 154.477 51.2 153.757 51.2C152.73 51.2 151.823 50.98 151.037 50.54C150.25 50.1 149.637 49.4867 149.197 48.7C148.757 47.9 148.537 46.98 148.537 45.94C148.537 44.8467 148.75 43.8933 149.177 43.08C149.617 42.2533 150.197 41.6267 150.917 41.2C151.637 40.76 152.403 40.54 153.217 40.54C154.017 40.54 154.763 40.7267 155.457 41.1C156.163 41.4733 156.737 42.02 157.177 42.74C157.617 43.46 157.843 44.3133 157.857 45.3ZM153.217 41.7C152.443 41.7 151.723 41.9667 151.057 42.5C150.403 43.0333 149.983 43.8 149.797 44.8H156.617V44.64C156.55 44.04 156.35 43.52 156.017 43.08C155.683 42.6267 155.263 42.2867 154.757 42.06C154.263 41.82 153.75 41.7 153.217 41.7ZM160.49 51C160.263 51 160.09 50.9333 159.97 50.8C159.85 50.6533 159.79 50.46 159.79 50.22V49.8C159.79 49.56 159.85 49.3733 159.97 49.24C160.09 49.1067 160.263 49.04 160.49 49.04H160.63C160.857 49.04 161.03 49.1067 161.15 49.24C161.27 49.3733 161.33 49.56 161.33 49.8V50.22C161.33 50.46 161.27 50.6533 161.15 50.8C161.03 50.9333 160.857 51 160.63 51H160.49ZM168.363 40.54C168.99 40.54 169.57 40.6133 170.103 40.76C170.65 40.8933 171.083 41.08 171.403 41.32C171.737 41.56 171.903 41.82 171.903 42.1C171.903 42.2467 171.85 42.38 171.743 42.5C171.65 42.62 171.53 42.68 171.383 42.68C171.25 42.68 171.137 42.6533 171.043 42.6C170.963 42.5467 170.87 42.4667 170.763 42.36C170.59 42.1867 170.423 42.06 170.263 41.98C170.063 41.8867 169.797 41.8133 169.463 41.76C169.143 41.6933 168.797 41.66 168.423 41.66C167.69 41.66 167.017 41.8467 166.403 42.22C165.803 42.5933 165.33 43.1 164.983 43.74C164.637 44.38 164.463 45.0867 164.463 45.86C164.463 46.66 164.63 47.38 164.963 48.02C165.297 48.66 165.757 49.1667 166.343 49.54C166.943 49.9 167.623 50.08 168.383 50.08C168.863 50.08 169.243 50.04 169.523 49.96C169.817 49.88 170.103 49.7667 170.383 49.62C170.477 49.5667 170.637 49.4467 170.863 49.26C170.97 49.1667 171.063 49.1 171.143 49.06C171.223 49.0067 171.31 48.98 171.403 48.98C171.563 48.98 171.69 49.0333 171.783 49.14C171.877 49.2333 171.923 49.36 171.923 49.52C171.923 49.7467 171.763 49.9933 171.443 50.26C171.123 50.5133 170.683 50.7333 170.123 50.92C169.563 51.1067 168.943 51.2 168.263 51.2C167.29 51.2 166.423 50.9733 165.663 50.52C164.903 50.0533 164.31 49.4133 163.883 48.6C163.47 47.7867 163.263 46.8733 163.263 45.86C163.263 44.8867 163.477 44 163.903 43.2C164.33 42.3867 164.93 41.74 165.703 41.26C166.477 40.78 167.363 40.54 168.363 40.54ZM183.657 45.88C183.657 46.88 183.437 47.7867 182.997 48.6C182.557 49.4133 181.95 50.0533 181.177 50.52C180.403 50.9733 179.543 51.2 178.597 51.2C177.65 51.2 176.79 50.9733 176.017 50.52C175.243 50.0533 174.637 49.4133 174.197 48.6C173.757 47.7867 173.537 46.88 173.537 45.88C173.537 44.88 173.757 43.9733 174.197 43.16C174.637 42.3467 175.243 41.7067 176.017 41.24C176.79 40.7733 177.65 40.54 178.597 40.54C179.543 40.54 180.403 40.7733 181.177 41.24C181.95 41.7067 182.557 42.3467 182.997 43.16C183.437 43.9733 183.657 44.88 183.657 45.88ZM182.457 45.88C182.457 45.08 182.29 44.36 181.957 43.72C181.623 43.08 181.157 42.58 180.557 42.22C179.97 41.8467 179.317 41.66 178.597 41.66C177.877 41.66 177.223 41.8467 176.637 42.22C176.05 42.58 175.583 43.08 175.237 43.72C174.903 44.36 174.737 45.08 174.737 45.88C174.737 46.6667 174.903 47.38 175.237 48.02C175.583 48.66 176.05 49.1667 176.637 49.54C177.223 49.9 177.877 50.08 178.597 50.08C179.317 50.08 179.97 49.9 180.557 49.54C181.157 49.18 181.623 48.68 181.957 48.04C182.29 47.4 182.457 46.68 182.457 45.88ZM197.711 40.7C198.911 40.7 199.791 41.0733 200.351 41.82C200.925 42.5533 201.211 43.5267 201.211 44.74V50.4C201.211 50.5733 201.151 50.72 201.031 50.84C200.925 50.9467 200.785 51 200.611 51C200.438 51 200.291 50.9467 200.171 50.84C200.065 50.72 200.011 50.5733 200.011 50.4V44.8C200.011 43.92 199.798 43.2067 199.371 42.66C198.958 42.1 198.311 41.82 197.431 41.82C196.871 41.82 196.338 41.9533 195.831 42.22C195.338 42.4867 194.938 42.8533 194.631 43.32C194.325 43.7733 194.171 44.2667 194.171 44.8V50.4C194.171 50.5733 194.111 50.72 193.991 50.84C193.885 50.9467 193.745 51 193.571 51C193.398 51 193.251 50.9467 193.131 50.84C193.025 50.72 192.971 50.5733 192.971 50.4V44.74C192.971 43.8733 192.771 43.1733 192.371 42.64C191.971 42.0933 191.345 41.82 190.491 41.82C189.945 41.82 189.425 41.9533 188.931 42.22C188.451 42.4867 188.058 42.8467 187.751 43.3C187.458 43.74 187.311 44.22 187.311 44.74V50.4C187.311 50.5733 187.251 50.72 187.131 50.84C187.025 50.9467 186.885 51 186.711 51C186.538 51 186.391 50.9467 186.271 50.84C186.165 50.72 186.111 50.5733 186.111 50.4V41.44C186.111 41.2667 186.165 41.1267 186.271 41.02C186.391 40.9 186.538 40.84 186.711 40.84C186.885 40.84 187.025 40.9 187.131 41.02C187.251 41.1267 187.311 41.2667 187.311 41.44V42.6C187.671 42.0533 188.158 41.6 188.771 41.24C189.385 40.88 190.031 40.7 190.711 40.7C191.485 40.7 192.151 40.8867 192.711 41.26C193.271 41.6333 193.671 42.18 193.911 42.9C194.191 42.3133 194.705 41.8 195.451 41.36C196.198 40.92 196.951 40.7 197.711 40.7ZM26.6545 72C26.8279 72 26.9679 72.06 27.0745 72.18C27.1945 72.2867 27.2545 72.4267 27.2545 72.6C27.2545 72.76 27.1945 72.9 27.0745 73.02C26.9679 73.1267 26.8279 73.18 26.6545 73.18H19.9945V78.2H25.7545C25.9279 78.2 26.0679 78.2533 26.1745 78.36C26.2945 78.4667 26.3545 78.6067 26.3545 78.78C26.3545 78.9533 26.2945 79.0933 26.1745 79.2C26.0679 79.3067 25.9279 79.36 25.7545 79.36H19.9945V85.4C19.9945 85.5733 19.9345 85.72 19.8145 85.84C19.7079 85.9467 19.5679 86 19.3945 86C19.2079 86 19.0545 85.9467 18.9345 85.84C18.8279 85.72 18.7745 85.5733 18.7745 85.4V72.6C18.7745 72.4267 18.8279 72.2867 18.9345 72.18C19.0545 72.06 19.2012 72 19.3745 72H26.6545ZM34.4069 75.54C34.6735 75.54 34.9135 75.5933 35.1269 75.7C35.3402 75.8067 35.4469 75.9667 35.4469 76.18C35.4469 76.3667 35.3935 76.52 35.2869 76.64C35.1802 76.7467 35.0535 76.8 34.9069 76.8C34.8402 76.8 34.7069 76.7667 34.5069 76.7C34.3202 76.6333 34.1402 76.6 33.9669 76.6C33.4735 76.6 32.9802 76.7933 32.4869 77.18C32.0069 77.5533 31.6069 78.04 31.2869 78.64C30.9802 79.24 30.8269 79.8467 30.8269 80.46V85.4C30.8269 85.5733 30.7669 85.72 30.6469 85.84C30.5402 85.9467 30.4002 86 30.2269 86C30.0535 86 29.9069 85.9467 29.7869 85.84C29.6802 85.72 29.6269 85.5733 29.6269 85.4V76.44C29.6269 76.2667 29.6802 76.1267 29.7869 76.02C29.9069 75.9 30.0535 75.84 30.2269 75.84C30.4002 75.84 30.5402 75.9 30.6469 76.02C30.7669 76.1267 30.8269 76.2667 30.8269 76.44V78.2C31.1335 77.44 31.5935 76.8133 32.2069 76.32C32.8335 75.8133 33.5669 75.5533 34.4069 75.54ZM45.3878 75.78C45.5611 75.78 45.7011 75.84 45.8078 75.96C45.9278 76.08 45.9878 76.2267 45.9878 76.4V85.4C45.9878 85.5733 45.9278 85.72 45.8078 85.84C45.7011 85.9467 45.5611 86 45.3878 86C45.2145 86 45.0678 85.9467 44.9478 85.84C44.8411 85.72 44.7878 85.5733 44.7878 85.4V84.06C44.4545 84.66 43.9545 85.1667 43.2878 85.58C42.6211 85.9933 41.8945 86.2 41.1078 86.2C40.2145 86.2 39.4078 85.9667 38.6878 85.5C37.9811 85.0333 37.4211 84.3933 37.0078 83.58C36.6078 82.7667 36.4078 81.8533 36.4078 80.84C36.4078 79.8267 36.6145 78.92 37.0278 78.12C37.4411 77.3067 38.0011 76.6733 38.7078 76.22C39.4278 75.7667 40.2211 75.54 41.0878 75.54C41.8878 75.54 42.6211 75.7333 43.2878 76.12C43.9545 76.5067 44.4545 77.0133 44.7878 77.64V76.4C44.7878 76.2267 44.8411 76.08 44.9478 75.96C45.0678 75.84 45.2145 75.78 45.3878 75.78ZM41.2278 85.08C41.9211 85.08 42.5411 84.9 43.0878 84.54C43.6478 84.1667 44.0811 83.66 44.3878 83.02C44.7078 82.3667 44.8678 81.64 44.8678 80.84C44.8678 80.0667 44.7078 79.36 44.3878 78.72C44.0811 78.08 43.6478 77.58 43.0878 77.22C42.5411 76.8467 41.9211 76.66 41.2278 76.66C40.5345 76.66 39.9078 76.84 39.3478 77.2C38.8011 77.56 38.3678 78.06 38.0478 78.7C37.7411 79.3267 37.5878 80.04 37.5878 80.84C37.5878 81.64 37.7411 82.3667 38.0478 83.02C38.3545 83.66 38.7811 84.1667 39.3278 84.54C39.8878 84.9 40.5211 85.08 41.2278 85.08ZM53.9391 75.54C55.1791 75.54 56.0857 75.9067 56.6591 76.64C57.2457 77.36 57.5391 78.32 57.5391 79.52V85.4C57.5391 85.5733 57.4791 85.72 57.3591 85.84C57.2391 85.9467 57.0991 86 56.9391 86C56.7657 86 56.6191 85.9467 56.4991 85.84C56.3924 85.72 56.3391 85.5733 56.3391 85.4V79.58C56.3391 78.7133 56.1191 78.0133 55.6791 77.48C55.2524 76.9333 54.5857 76.66 53.6791 76.66C53.1057 76.66 52.5591 76.7933 52.0391 77.06C51.5324 77.3267 51.1191 77.6867 50.7991 78.14C50.4791 78.58 50.3191 79.06 50.3191 79.58V85.4C50.3191 85.5733 50.2591 85.72 50.1391 85.84C50.0324 85.9467 49.8924 86 49.7191 86C49.5457 86 49.3991 85.9467 49.2791 85.84C49.1724 85.72 49.1191 85.5733 49.1191 85.4V76.44C49.1191 76.2667 49.1724 76.1267 49.2791 76.02C49.3991 75.9 49.5457 75.84 49.7191 75.84C49.8924 75.84 50.0324 75.9 50.1391 76.02C50.2591 76.1267 50.3191 76.2667 50.3191 76.44V77.54C50.6791 76.9667 51.1924 76.4933 51.8591 76.12C52.5391 75.7333 53.2324 75.54 53.9391 75.54ZM65.1016 75.54C65.7282 75.54 66.3082 75.6133 66.8416 75.76C67.3882 75.8933 67.8216 76.08 68.1416 76.32C68.4749 76.56 68.6416 76.82 68.6416 77.1C68.6416 77.2467 68.5882 77.38 68.4816 77.5C68.3882 77.62 68.2682 77.68 68.1216 77.68C67.9882 77.68 67.8749 77.6533 67.7816 77.6C67.7016 77.5467 67.6082 77.4667 67.5016 77.36C67.3282 77.1867 67.1616 77.06 67.0016 76.98C66.8016 76.8867 66.5349 76.8133 66.2016 76.76C65.8816 76.6933 65.5349 76.66 65.1616 76.66C64.4282 76.66 63.7549 76.8467 63.1416 77.22C62.5416 77.5933 62.0682 78.1 61.7216 78.74C61.3749 79.38 61.2016 80.0867 61.2016 80.86C61.2016 81.66 61.3682 82.38 61.7016 83.02C62.0349 83.66 62.4949 84.1667 63.0816 84.54C63.6816 84.9 64.3616 85.08 65.1216 85.08C65.6016 85.08 65.9816 85.04 66.2616 84.96C66.5549 84.88 66.8416 84.7667 67.1216 84.62C67.2149 84.5667 67.3749 84.4467 67.6016 84.26C67.7082 84.1667 67.8016 84.1 67.8816 84.06C67.9616 84.0067 68.0482 83.98 68.1416 83.98C68.3016 83.98 68.4282 84.0333 68.5216 84.14C68.6149 84.2333 68.6616 84.36 68.6616 84.52C68.6616 84.7467 68.5016 84.9933 68.1816 85.26C67.8616 85.5133 67.4216 85.7333 66.8616 85.92C66.3016 86.1067 65.6816 86.2 65.0016 86.2C64.0282 86.2 63.1616 85.9733 62.4016 85.52C61.6416 85.0533 61.0482 84.4133 60.6216 83.6C60.2082 82.7867 60.0016 81.8733 60.0016 80.86C60.0016 79.8867 60.2149 79 60.6416 78.2C61.0682 77.3867 61.6682 76.74 62.4416 76.26C63.2149 75.78 64.1016 75.54 65.1016 75.54ZM79.595 80.3C79.595 80.46 79.535 80.6 79.415 80.72C79.295 80.8267 79.155 80.88 78.995 80.88H71.435C71.435 81.68 71.595 82.4 71.915 83.04C72.2483 83.6667 72.715 84.1667 73.315 84.54C73.9283 84.9 74.6483 85.08 75.475 85.08C76.115 85.08 76.6883 84.9467 77.195 84.68C77.7017 84.4133 78.1083 84.0733 78.415 83.66C78.5617 83.54 78.7017 83.48 78.835 83.48C78.9683 83.48 79.0883 83.5333 79.195 83.64C79.3017 83.7467 79.355 83.8667 79.355 84C79.355 84.1467 79.2883 84.2867 79.155 84.42C78.7283 84.94 78.1883 85.3667 77.535 85.7C76.895 86.0333 76.215 86.2 75.495 86.2C74.4683 86.2 73.5617 85.98 72.775 85.54C71.9883 85.1 71.375 84.4867 70.935 83.7C70.495 82.9 70.275 81.98 70.275 80.94C70.275 79.8467 70.4883 78.8933 70.915 78.08C71.355 77.2533 71.935 76.6267 72.655 76.2C73.375 75.76 74.1417 75.54 74.955 75.54C75.755 75.54 76.5017 75.7267 77.195 76.1C77.9017 76.4733 78.475 77.02 78.915 77.74C79.355 78.46 79.5817 79.3133 79.595 80.3ZM74.955 76.7C74.1817 76.7 73.4617 76.9667 72.795 77.5C72.1417 78.0333 71.7217 78.8 71.535 79.8H78.355V79.64C78.2883 79.04 78.0883 78.52 77.755 78.08C77.4217 77.6267 77.0017 77.2867 76.495 77.06C76.0017 76.82 75.4883 76.7 74.955 76.7ZM83.6083 85.94C83.6083 86.3133 83.5083 86.6867 83.3083 87.06C83.1216 87.4467 82.8816 87.76 82.5883 88C82.2949 88.2533 82.0083 88.38 81.7283 88.38C81.5816 88.38 81.4549 88.34 81.3483 88.26C81.2549 88.1933 81.2083 88.0867 81.2083 87.94C81.2083 87.8067 81.2416 87.7133 81.3083 87.66C81.3749 87.6067 81.4749 87.56 81.6083 87.52C81.7549 87.48 81.8616 87.44 81.9283 87.4C82.1149 87.3067 82.2549 87.1667 82.3483 86.98C82.4549 86.8067 82.5083 86.6133 82.5083 86.4C82.5083 86.2533 82.4683 86.1333 82.3883 86.04C82.3083 85.9467 82.2016 85.9 82.0683 85.9C81.8549 85.9 81.6749 85.96 81.5283 86.08C81.3683 85.9467 81.2883 85.7867 81.2883 85.6C81.2883 85.36 81.4083 85.1533 81.6483 84.98C81.8883 84.7933 82.1483 84.7 82.4283 84.7C82.7749 84.7 83.0549 84.8133 83.2683 85.04C83.4949 85.2533 83.6083 85.5533 83.6083 85.94ZM97.0638 72C97.7971 72 98.4571 72.1733 99.0438 72.52C99.6304 72.8533 100.084 73.3267 100.404 73.94C100.737 74.54 100.904 75.22 100.904 75.98C100.904 76.74 100.737 77.4333 100.404 78.06C100.084 78.6867 99.6304 79.18 99.0438 79.54C98.4571 79.9 97.7971 80.08 97.0638 80.08H92.9238V85.4C92.9238 85.5733 92.8638 85.72 92.7438 85.84C92.6371 85.9467 92.4971 86 92.3238 86C92.1504 86 92.0038 85.9467 91.8838 85.84C91.7771 85.72 91.7238 85.5733 91.7238 85.4V72.6C91.7238 72.4267 91.7771 72.2867 91.8838 72.18C92.0038 72.06 92.1504 72 92.3238 72H97.0638ZM97.0638 78.92C97.8371 78.92 98.4638 78.64 98.9438 78.08C99.4238 77.52 99.6638 76.82 99.6638 75.98C99.6638 75.1533 99.4238 74.48 98.9438 73.96C98.4638 73.44 97.8371 73.18 97.0638 73.18H92.9238V78.92H97.0638ZM111.54 75.78C111.713 75.78 111.853 75.84 111.96 75.96C112.08 76.08 112.14 76.2267 112.14 76.4V85.4C112.14 85.5733 112.08 85.72 111.96 85.84C111.853 85.9467 111.713 86 111.54 86C111.367 86 111.22 85.9467 111.1 85.84C110.993 85.72 110.94 85.5733 110.94 85.4V84.06C110.607 84.66 110.107 85.1667 109.44 85.58C108.773 85.9933 108.047 86.2 107.26 86.2C106.367 86.2 105.56 85.9667 104.84 85.5C104.133 85.0333 103.573 84.3933 103.16 83.58C102.76 82.7667 102.56 81.8533 102.56 80.84C102.56 79.8267 102.767 78.92 103.18 78.12C103.593 77.3067 104.153 76.6733 104.86 76.22C105.58 75.7667 106.373 75.54 107.24 75.54C108.04 75.54 108.773 75.7333 109.44 76.12C110.107 76.5067 110.607 77.0133 110.94 77.64V76.4C110.94 76.2267 110.993 76.08 111.1 75.96C111.22 75.84 111.367 75.78 111.54 75.78ZM107.38 85.08C108.073 85.08 108.693 84.9 109.24 84.54C109.8 84.1667 110.233 83.66 110.54 83.02C110.86 82.3667 111.02 81.64 111.02 80.84C111.02 80.0667 110.86 79.36 110.54 78.72C110.233 78.08 109.8 77.58 109.24 77.22C108.693 76.8467 108.073 76.66 107.38 76.66C106.687 76.66 106.06 76.84 105.5 77.2C104.953 77.56 104.52 78.06 104.2 78.7C103.893 79.3267 103.74 80.04 103.74 80.84C103.74 81.64 103.893 82.3667 104.2 83.02C104.507 83.66 104.933 84.1667 105.48 84.54C106.04 84.9 106.673 85.08 107.38 85.08ZM120.051 75.54C120.318 75.54 120.558 75.5933 120.771 75.7C120.985 75.8067 121.091 75.9667 121.091 76.18C121.091 76.3667 121.038 76.52 120.931 76.64C120.825 76.7467 120.698 76.8 120.551 76.8C120.485 76.8 120.351 76.7667 120.151 76.7C119.965 76.6333 119.785 76.6 119.611 76.6C119.118 76.6 118.625 76.7933 118.131 77.18C117.651 77.5533 117.251 78.04 116.931 78.64C116.625 79.24 116.471 79.8467 116.471 80.46V85.4C116.471 85.5733 116.411 85.72 116.291 85.84C116.185 85.9467 116.045 86 115.871 86C115.698 86 115.551 85.9467 115.431 85.84C115.325 85.72 115.271 85.5733 115.271 85.4V76.44C115.271 76.2667 115.325 76.1267 115.431 76.02C115.551 75.9 115.698 75.84 115.871 75.84C116.045 75.84 116.185 75.9 116.291 76.02C116.411 76.1267 116.471 76.2667 116.471 76.44V78.2C116.778 77.44 117.238 76.8133 117.851 76.32C118.478 75.8133 119.211 75.5533 120.051 75.54ZM124.127 85.4C124.127 85.5733 124.067 85.72 123.947 85.84C123.84 85.9467 123.7 86 123.527 86C123.353 86 123.207 85.9467 123.087 85.84C122.98 85.72 122.927 85.5733 122.927 85.4V76.2C122.927 76.0267 122.98 75.8867 123.087 75.78C123.207 75.66 123.353 75.6 123.527 75.6C123.7 75.6 123.84 75.66 123.947 75.78C124.067 75.8867 124.127 76.0267 124.127 76.2V85.4ZM123.527 74.26C123.26 74.26 123.053 74.2 122.907 74.08C122.76 73.9467 122.687 73.76 122.687 73.52V73.32C122.687 73.08 122.76 72.9 122.907 72.78C123.067 72.6467 123.28 72.58 123.547 72.58C124.08 72.58 124.347 72.8267 124.347 73.32V73.52C124.347 73.76 124.273 73.9467 124.127 74.08C123.993 74.2 123.793 74.26 123.527 74.26ZM126.664 84.38C126.557 84.2067 126.504 84.06 126.504 83.94C126.504 83.7667 126.591 83.6333 126.764 83.54C126.844 83.46 126.951 83.42 127.084 83.42C127.244 83.42 127.391 83.4867 127.524 83.62C128.311 84.66 129.357 85.18 130.664 85.18C131.304 85.18 131.857 85.0333 132.324 84.74C132.804 84.4333 133.044 83.9933 133.044 83.42C133.044 82.86 132.824 82.44 132.384 82.16C131.944 81.88 131.331 81.64 130.544 81.44C129.437 81.16 128.571 80.8 127.944 80.36C127.317 79.9067 127.004 79.2467 127.004 78.38C127.004 77.8333 127.157 77.3467 127.464 76.92C127.771 76.48 128.184 76.14 128.704 75.9C129.237 75.66 129.837 75.54 130.504 75.54C131.077 75.54 131.651 75.6533 132.224 75.88C132.811 76.0933 133.311 76.44 133.724 76.92C133.844 77.0133 133.904 77.1467 133.904 77.32C133.904 77.48 133.837 77.62 133.704 77.74C133.611 77.82 133.491 77.86 133.344 77.86C133.211 77.86 133.091 77.8067 132.984 77.7C132.664 77.34 132.284 77.0667 131.844 76.88C131.404 76.6933 130.931 76.6 130.424 76.6C129.797 76.6 129.257 76.7467 128.804 77.04C128.364 77.3333 128.144 77.7733 128.144 78.36C128.171 78.8933 128.411 79.3 128.864 79.58C129.331 79.86 130.011 80.1133 130.904 80.34C131.597 80.5133 132.171 80.7067 132.624 80.92C133.077 81.1333 133.444 81.4333 133.724 81.82C134.017 82.2067 134.164 82.72 134.164 83.36C134.164 84.2267 133.817 84.92 133.124 85.44C132.431 85.9467 131.571 86.2 130.544 86.2C128.917 86.2 127.624 85.5933 126.664 84.38ZM138.159 85.94C138.159 86.3133 138.059 86.6867 137.859 87.06C137.672 87.4467 137.432 87.76 137.139 88C136.846 88.2533 136.559 88.38 136.279 88.38C136.132 88.38 136.006 88.34 135.899 88.26C135.806 88.1933 135.759 88.0867 135.759 87.94C135.759 87.8067 135.792 87.7133 135.859 87.66C135.926 87.6067 136.026 87.56 136.159 87.52C136.306 87.48 136.412 87.44 136.479 87.4C136.666 87.3067 136.806 87.1667 136.899 86.98C137.006 86.8067 137.059 86.6133 137.059 86.4C137.059 86.2533 137.019 86.1333 136.939 86.04C136.859 85.9467 136.752 85.9 136.619 85.9C136.406 85.9 136.226 85.96 136.079 86.08C135.919 85.9467 135.839 85.7867 135.839 85.6C135.839 85.36 135.959 85.1533 136.199 84.98C136.439 84.7933 136.699 84.7 136.979 84.7C137.326 84.7 137.606 84.8133 137.819 85.04C138.046 85.2533 138.159 85.5533 138.159 85.94ZM154.015 84.82C154.188 84.82 154.328 84.8733 154.435 84.98C154.555 85.0867 154.615 85.2267 154.615 85.4C154.615 85.5733 154.555 85.72 154.435 85.84C154.328 85.9467 154.188 86 154.015 86H146.875C146.701 86 146.555 85.9467 146.435 85.84C146.328 85.72 146.275 85.5733 146.275 85.4V72.6C146.275 72.4267 146.335 72.2867 146.455 72.18C146.575 72.06 146.728 72 146.915 72C147.088 72 147.235 72.06 147.355 72.18C147.475 72.2867 147.535 72.4267 147.535 72.6V84.82H154.015ZM157.779 85.4C157.779 85.5733 157.719 85.72 157.599 85.84C157.492 85.9467 157.352 86 157.179 86C157.006 86 156.859 85.9467 156.739 85.84C156.632 85.72 156.579 85.5733 156.579 85.4V76.2C156.579 76.0267 156.632 75.8867 156.739 75.78C156.859 75.66 157.006 75.6 157.179 75.6C157.352 75.6 157.492 75.66 157.599 75.78C157.719 75.8867 157.779 76.0267 157.779 76.2V85.4ZM157.179 74.26C156.912 74.26 156.706 74.2 156.559 74.08C156.412 73.9467 156.339 73.76 156.339 73.52V73.32C156.339 73.08 156.412 72.9 156.559 72.78C156.719 72.6467 156.932 72.58 157.199 72.58C157.732 72.58 157.999 72.8267 157.999 73.32V73.52C157.999 73.76 157.926 73.9467 157.779 74.08C157.646 74.2 157.446 74.26 157.179 74.26ZM162.216 85.4C162.216 85.5733 162.156 85.72 162.036 85.84C161.93 85.9467 161.79 86 161.616 86C161.443 86 161.296 85.9467 161.176 85.84C161.07 85.72 161.016 85.5733 161.016 85.4V71.8C161.016 71.6267 161.07 71.4867 161.176 71.38C161.296 71.26 161.443 71.2 161.616 71.2C161.79 71.2 161.93 71.26 162.036 71.38C162.156 71.4867 162.216 71.6267 162.216 71.8V85.4ZM166.826 85.4C166.826 85.5733 166.766 85.72 166.646 85.84C166.539 85.9467 166.399 86 166.226 86C166.052 86 165.906 85.9467 165.786 85.84C165.679 85.72 165.626 85.5733 165.626 85.4V71.8C165.626 71.6267 165.679 71.4867 165.786 71.38C165.906 71.26 166.052 71.2 166.226 71.2C166.399 71.2 166.539 71.26 166.646 71.38C166.766 71.4867 166.826 71.6267 166.826 71.8V85.4ZM178.56 80.3C178.56 80.46 178.5 80.6 178.38 80.72C178.26 80.8267 178.12 80.88 177.96 80.88H170.4C170.4 81.68 170.56 82.4 170.88 83.04C171.213 83.6667 171.68 84.1667 172.28 84.54C172.893 84.9 173.613 85.08 174.44 85.08C175.08 85.08 175.653 84.9467 176.16 84.68C176.667 84.4133 177.073 84.0733 177.38 83.66C177.527 83.54 177.667 83.48 177.8 83.48C177.933 83.48 178.053 83.5333 178.16 83.64C178.267 83.7467 178.32 83.8667 178.32 84C178.32 84.1467 178.253 84.2867 178.12 84.42C177.693 84.94 177.153 85.3667 176.5 85.7C175.86 86.0333 175.18 86.2 174.46 86.2C173.433 86.2 172.527 85.98 171.74 85.54C170.953 85.1 170.34 84.4867 169.9 83.7C169.46 82.9 169.24 81.98 169.24 80.94C169.24 79.8467 169.453 78.8933 169.88 78.08C170.32 77.2533 170.9 76.6267 171.62 76.2C172.34 75.76 173.107 75.54 173.92 75.54C174.72 75.54 175.467 75.7267 176.16 76.1C176.867 76.4733 177.44 77.02 177.88 77.74C178.32 78.46 178.547 79.3133 178.56 80.3ZM173.92 76.7C173.147 76.7 172.427 76.9667 171.76 77.5C171.107 78.0333 170.687 78.8 170.5 79.8H177.32V79.64C177.253 79.04 177.053 78.52 176.72 78.08C176.387 77.6267 175.967 77.2867 175.46 77.06C174.967 76.82 174.453 76.7 173.92 76.7ZM194.802 71.2C194.975 71.2 195.115 71.26 195.222 71.38C195.342 71.4867 195.402 71.6267 195.402 71.8V85.4C195.402 85.5733 195.342 85.72 195.222 85.84C195.115 85.9467 194.975 86 194.802 86C194.629 86 194.482 85.9467 194.362 85.84C194.255 85.72 194.202 85.5733 194.202 85.4V84C193.869 84.6133 193.369 85.1333 192.702 85.56C192.049 85.9867 191.322 86.2 190.522 86.2C189.642 86.2 188.842 85.9733 188.122 85.52C187.415 85.0533 186.855 84.4133 186.442 83.6C186.029 82.7867 185.822 81.8733 185.822 80.86C185.822 79.86 186.029 78.9533 186.442 78.14C186.855 77.3267 187.415 76.6933 188.122 76.24C188.842 75.7733 189.635 75.54 190.502 75.54C191.289 75.54 192.015 75.74 192.682 76.14C193.349 76.5267 193.855 77.0333 194.202 77.66V71.8C194.202 71.6267 194.255 71.4867 194.362 71.38C194.482 71.26 194.629 71.2 194.802 71.2ZM190.642 85.08C191.335 85.08 191.955 84.9 192.502 84.54C193.062 84.18 193.495 83.68 193.802 83.04C194.122 82.3867 194.282 81.66 194.282 80.86C194.282 80.0733 194.122 79.36 193.802 78.72C193.495 78.08 193.062 77.58 192.502 77.22C191.955 76.8467 191.335 76.66 190.642 76.66C189.949 76.66 189.322 76.8467 188.762 77.22C188.215 77.58 187.782 78.08 187.462 78.72C187.155 79.36 187.002 80.0733 187.002 80.86C187.002 81.66 187.155 82.38 187.462 83.02C187.782 83.66 188.215 84.1667 188.762 84.54C189.322 84.9 189.949 85.08 190.642 85.08ZM207.173 80.3C207.173 80.46 207.113 80.6 206.993 80.72C206.873 80.8267 206.733 80.88 206.573 80.88H199.013C199.013 81.68 199.173 82.4 199.493 83.04C199.826 83.6667 200.293 84.1667 200.893 84.54C201.506 84.9 202.226 85.08 203.053 85.08C203.693 85.08 204.266 84.9467 204.773 84.68C205.28 84.4133 205.686 84.0733 205.993 83.66C206.14 83.54 206.28 83.48 206.413 83.48C206.546 83.48 206.666 83.5333 206.773 83.64C206.88 83.7467 206.933 83.8667 206.933 84C206.933 84.1467 206.866 84.2867 206.733 84.42C206.306 84.94 205.766 85.3667 205.113 85.7C204.473 86.0333 203.793 86.2 203.073 86.2C202.046 86.2 201.14 85.98 200.353 85.54C199.566 85.1 198.953 84.4867 198.513 83.7C198.073 82.9 197.853 81.98 197.853 80.94C197.853 79.8467 198.066 78.8933 198.493 78.08C198.933 77.2533 199.513 76.6267 200.233 76.2C200.953 75.76 201.72 75.54 202.533 75.54C203.333 75.54 204.08 75.7267 204.773 76.1C205.48 76.4733 206.053 77.02 206.493 77.74C206.933 78.46 207.16 79.3133 207.173 80.3ZM202.533 76.7C201.76 76.7 201.04 76.9667 200.373 77.5C199.72 78.0333 199.3 78.8 199.113 79.8H205.933V79.64C205.866 79.04 205.666 78.52 205.333 78.08C205 77.6267 204.58 77.2867 204.073 77.06C203.58 76.82 203.066 76.7 202.533 76.7ZM216.435 85.4C216.435 85.5733 216.375 85.72 216.255 85.84C216.148 85.9467 216.008 86 215.835 86C215.662 86 215.515 85.9467 215.395 85.84C215.288 85.72 215.235 85.5733 215.235 85.4V71.8C215.235 71.6267 215.288 71.4867 215.395 71.38C215.515 71.26 215.662 71.2 215.835 71.2C216.008 71.2 216.148 71.26 216.255 71.38C216.375 71.4867 216.435 71.6267 216.435 71.8V85.4ZM228.025 75.78C228.198 75.78 228.338 75.84 228.445 75.96C228.565 76.08 228.625 76.2267 228.625 76.4V85.4C228.625 85.5733 228.565 85.72 228.445 85.84C228.338 85.9467 228.198 86 228.025 86C227.851 86 227.705 85.9467 227.585 85.84C227.478 85.72 227.425 85.5733 227.425 85.4V84.06C227.091 84.66 226.591 85.1667 225.925 85.58C225.258 85.9933 224.531 86.2 223.745 86.2C222.851 86.2 222.045 85.9667 221.325 85.5C220.618 85.0333 220.058 84.3933 219.645 83.58C219.245 82.7667 219.045 81.8533 219.045 80.84C219.045 79.8267 219.251 78.92 219.665 78.12C220.078 77.3067 220.638 76.6733 221.345 76.22C222.065 75.7667 222.858 75.54 223.725 75.54C224.525 75.54 225.258 75.7333 225.925 76.12C226.591 76.5067 227.091 77.0133 227.425 77.64V76.4C227.425 76.2267 227.478 76.08 227.585 75.96C227.705 75.84 227.851 75.78 228.025 75.78ZM223.865 85.08C224.558 85.08 225.178 84.9 225.725 84.54C226.285 84.1667 226.718 83.66 227.025 83.02C227.345 82.3667 227.505 81.64 227.505 80.84C227.505 80.0667 227.345 79.36 227.025 78.72C226.718 78.08 226.285 77.58 225.725 77.22C225.178 76.8467 224.558 76.66 223.865 76.66C223.171 76.66 222.545 76.84 221.985 77.2C221.438 77.56 221.005 78.06 220.685 78.7C220.378 79.3267 220.225 80.04 220.225 80.84C220.225 81.64 220.378 82.3667 220.685 83.02C220.991 83.66 221.418 84.1667 221.965 84.54C222.525 84.9 223.158 85.08 223.865 85.08ZM247.745 73.04C247.945 73.16 248.045 73.3267 248.045 73.54C248.045 73.66 247.998 73.7933 247.905 73.94C247.785 74.0867 247.631 74.16 247.445 74.16C247.338 74.16 247.231 74.1267 247.125 74.06C246.058 73.3533 244.891 73 243.625 73C242.545 73 241.565 73.2533 240.685 73.76C239.818 74.2667 239.131 74.98 238.625 75.9C238.131 76.8067 237.885 77.84 237.885 79C237.885 80.1867 238.138 81.24 238.645 82.16C239.151 83.0667 239.838 83.7733 240.705 84.28C241.585 84.7733 242.558 85.02 243.625 85.02C244.891 85.02 246.051 84.6733 247.105 83.98C247.211 83.9133 247.325 83.88 247.445 83.88C247.631 83.88 247.785 83.96 247.905 84.12C247.998 84.2267 248.045 84.3533 248.045 84.5C248.045 84.7133 247.951 84.8733 247.765 84.98C247.245 85.3267 246.605 85.62 245.845 85.86C245.085 86.0867 244.345 86.2 243.625 86.2C242.358 86.2 241.185 85.9 240.105 85.3C239.038 84.6867 238.185 83.8333 237.545 82.74C236.918 81.6467 236.605 80.4 236.605 79C236.605 77.6533 236.918 76.4333 237.545 75.34C238.171 74.2333 239.018 73.3733 240.085 72.76C241.151 72.1333 242.331 71.82 243.625 71.82C244.371 71.82 245.098 71.9267 245.805 72.14C246.525 72.3533 247.171 72.6533 247.745 73.04ZM251.451 85.4C251.451 85.5733 251.391 85.72 251.271 85.84C251.164 85.9467 251.024 86 250.851 86C250.678 86 250.531 85.9467 250.411 85.84C250.304 85.72 250.251 85.5733 250.251 85.4V76.2C250.251 76.0267 250.304 75.8867 250.411 75.78C250.531 75.66 250.678 75.6 250.851 75.6C251.024 75.6 251.164 75.66 251.271 75.78C251.391 75.8867 251.451 76.0267 251.451 76.2V85.4ZM250.851 74.26C250.584 74.26 250.378 74.2 250.231 74.08C250.084 73.9467 250.011 73.76 250.011 73.52V73.32C250.011 73.08 250.084 72.9 250.231 72.78C250.391 72.6467 250.604 72.58 250.871 72.58C251.404 72.58 251.671 72.8267 251.671 73.32V73.52C251.671 73.76 251.598 73.9467 251.451 74.08C251.318 74.2 251.118 74.26 250.851 74.26ZM256.568 76.94V83.64C256.568 84.1467 256.662 84.4933 256.848 84.68C257.035 84.8533 257.282 84.94 257.588 84.94C257.668 84.94 257.768 84.9267 257.888 84.9C258.008 84.86 258.102 84.84 258.168 84.84C258.288 84.84 258.388 84.8933 258.468 85C258.562 85.0933 258.608 85.2067 258.608 85.34C258.608 85.5267 258.502 85.6867 258.288 85.82C258.075 85.94 257.822 86 257.528 86C257.168 86 256.848 85.9667 256.568 85.9C256.288 85.8333 256.015 85.6333 255.748 85.3C255.495 84.9667 255.368 84.4333 255.368 83.7V76.94H253.908C253.748 76.94 253.608 76.8867 253.488 76.78C253.382 76.6733 253.328 76.54 253.328 76.38C253.328 76.22 253.382 76.0867 253.488 75.98C253.608 75.8733 253.748 75.82 253.908 75.82H255.368V73.6C255.368 73.4267 255.422 73.2867 255.528 73.18C255.648 73.06 255.795 73 255.968 73C256.142 73 256.282 73.06 256.388 73.18C256.508 73.2867 256.568 73.4267 256.568 73.6V75.82H258.568C258.715 75.82 258.842 75.88 258.948 76C259.068 76.12 259.128 76.2533 259.128 76.4C259.128 76.56 259.075 76.6933 258.968 76.8C258.862 76.8933 258.728 76.94 258.568 76.94H256.568ZM269.888 80.3C269.888 80.46 269.828 80.6 269.708 80.72C269.588 80.8267 269.448 80.88 269.288 80.88H261.728C261.728 81.68 261.888 82.4 262.208 83.04C262.541 83.6667 263.008 84.1667 263.608 84.54C264.221 84.9 264.941 85.08 265.768 85.08C266.408 85.08 266.981 84.9467 267.488 84.68C267.995 84.4133 268.401 84.0733 268.708 83.66C268.855 83.54 268.995 83.48 269.128 83.48C269.261 83.48 269.381 83.5333 269.488 83.64C269.595 83.7467 269.648 83.8667 269.648 84C269.648 84.1467 269.581 84.2867 269.448 84.42C269.021 84.94 268.481 85.3667 267.828 85.7C267.188 86.0333 266.508 86.2 265.788 86.2C264.761 86.2 263.855 85.98 263.068 85.54C262.281 85.1 261.668 84.4867 261.228 83.7C260.788 82.9 260.568 81.98 260.568 80.94C260.568 79.8467 260.781 78.8933 261.208 78.08C261.648 77.2533 262.228 76.6267 262.948 76.2C263.668 75.76 264.435 75.54 265.248 75.54C266.048 75.54 266.795 75.7267 267.488 76.1C268.195 76.4733 268.768 77.02 269.208 77.74C269.648 78.46 269.875 79.3133 269.888 80.3ZM265.248 76.7C264.475 76.7 263.755 76.9667 263.088 77.5C262.435 78.0333 262.015 78.8 261.828 79.8H268.648V79.64C268.581 79.04 268.381 78.52 268.048 78.08C267.715 77.6267 267.295 77.2867 266.788 77.06C266.295 76.82 265.781 76.7 265.248 76.7ZM280.53 72C280.677 72.0133 280.797 72.08 280.89 72.2C280.997 72.3067 281.05 72.44 281.05 72.6V85.4C281.05 85.5733 280.983 85.72 280.85 85.84C280.73 85.9467 280.577 86 280.39 86C280.217 86 280.07 85.9467 279.95 85.84C279.83 85.72 279.77 85.5733 279.77 85.4V73.7L277.27 75.18C277.177 75.2333 277.083 75.26 276.99 75.26C276.817 75.26 276.663 75.1933 276.53 75.06C276.41 74.9267 276.35 74.78 276.35 74.62C276.35 74.5267 276.377 74.4333 276.43 74.34C276.497 74.2467 276.577 74.1733 276.67 74.12L280.05 72.08C280.183 72 280.343 71.9733 280.53 72ZM289.35 75.7C290.23 75.7 291.03 75.9267 291.75 76.38C292.47 76.82 293.03 77.44 293.43 78.24C293.843 79.0267 294.05 79.9133 294.05 80.9C294.05 81.9 293.843 82.8 293.43 83.6C293.03 84.3867 292.47 85.0067 291.75 85.46C291.043 85.9133 290.25 86.14 289.37 86.14C288.597 86.14 287.883 85.96 287.23 85.6C286.59 85.2267 286.077 84.7333 285.69 84.12V89.4C285.69 89.5733 285.63 89.7133 285.51 89.82C285.403 89.94 285.263 90 285.09 90C284.917 90 284.77 89.94 284.65 89.82C284.543 89.7133 284.49 89.5733 284.49 89.4V76.36C284.49 76.1867 284.543 76.04 284.65 75.92C284.77 75.8 284.917 75.74 285.09 75.74C285.263 75.74 285.403 75.8 285.51 75.92C285.63 76.04 285.69 76.1867 285.69 76.36V77.72C286.037 77.0933 286.537 76.6 287.19 76.24C287.843 75.88 288.563 75.7 289.35 75.7ZM289.25 85.02C289.943 85.02 290.563 84.8467 291.11 84.5C291.67 84.14 292.103 83.6467 292.41 83.02C292.73 82.3933 292.89 81.6867 292.89 80.9C292.89 80.1267 292.73 79.4333 292.41 78.82C292.103 78.1933 291.67 77.7067 291.11 77.36C290.563 77 289.943 76.82 289.25 76.82C288.543 76.82 287.91 76.9933 287.35 77.34C286.79 77.6867 286.357 78.1733 286.05 78.8C285.743 79.4133 285.59 80.1133 285.59 80.9C285.59 81.6867 285.743 82.3933 286.05 83.02C286.357 83.6467 286.79 84.14 287.35 84.5C287.91 84.8467 288.543 85.02 289.25 85.02Z" fill="white"/>
<path d="M25.4688 53H202.771V54H25.4688V53Z" fill="white"/>
</svg>
